<svg xmlns="http://www.w3.org/2000/svg" width="362" height="204" viewBox="0 0 362 204"><defs><filter id="a" width="87.041" height="115.813" x="36" y="39.022" color-interpolation-filters="sRGB" filterUnits="userSpaceOnUse"><feFlood flood-opacity="0" result="BackgroundImageFix"/><feColorMatrix in="SourceAlpha" result="hardAlpha" values="0 0 0 0 0 0 0 0 0 0 0 0 0 0 0 0 0 0 127 0"/><feOffset/><feGaussianBlur stdDeviation="2"/><feColorMatrix values="0 0 0 0 0.2 0 0 0 0 0.4 0 0 0 0 0.8 0 0 0 0.15 0"/><feBlend in2="BackgroundImageFix" result="effect1_dropShadow_2028_42627"/><feBlend in="SourceGraphic" in2="effect1_dropShadow_2028_42627" result="shape"/></filter><filter id="b" width="111.886" height="110.332" x="206" y="41" color-interpolation-filters="sRGB" filterUnits="userSpaceOnUse"><feFlood flood-opacity="0" result="BackgroundImageFix"/><feColorMatrix in="SourceAlpha" result="hardAlpha" values="0 0 0 0 0 0 0 0 0 0 0 0 0 0 0 0 0 0 127 0"/><feOffset/><feGaussianBlur stdDeviation="2"/><feColorMatrix values="0 0 0 0 0.2 0 0 0 0 0.4 0 0 0 0 0.8 0 0 0 0.15 0"/><feBlend in2="BackgroundImageFix" result="effect1_dropShadow_2028_42627"/><feBlend in="SourceGraphic" in2="effect1_dropShadow_2028_42627" result="shape"/></filter></defs><path fill="#eaecf0" d="M0 0h362v203.094H0z"/><g filter="url(#a)"><path fill="#fff" fill-rule="evenodd" d="m40 97.085.197-52.071a2 2 0 0 1 2-1.992h65.828v9.138a2 2 0 0 0 2 2h9.016v92.848c0 1.335-2.119 1.929-3.454 1.929-1.772 0-1.61 1.395-3.176 1.83-1.565.436-1.568-1.83-3.245-1.83s-1.769 1.83-3.365 1.83-1.491-1.83-3.237-1.83-1.914 1.83-3.446 1.83-1.486-1.83-3.28-1.83-1.785 1.83-3.372 1.83-1.476-1.83-3.153-1.83-1.614 1.396-3.235 1.83-1.91-1.83-3.53-1.83-1.742 1.83-3.303 1.83c-1.562 0-1.31-1.83-3.044-1.83-1.732 0-1.926 1.83-3.545 1.83-1.62 0-1.76-1.83-3.446-1.83s-1.503 1.83-3.165 1.83-1.724-1.83-3.378-1.83-1.628 1.83-3.256 1.83-1.553-1.83-3.299-1.83-1.81 1.83-3.447 1.83c-1.636 0-1.492-1.83-2.923-1.83-1.43 0-2.027 2.319-3.588 1.83s-1.381-1.83-3.124-1.83c-1.05 0-3.03-.572-3.03-1.62z" clip-rule="evenodd"/></g><path fill="#c8ccd1" fill-rule="evenodd" d="M108.542 55.062c-.637 0-1.152-.531-1.152-1.189v-9.662c0-.48.052-.944.481-1.127.432-.185 1.157-.054 1.486.286l9.236 9.533c.295.215.43.773.43 1.174 0 .657-.46.985-1.097.985z" clip-rule="evenodd"/><ellipse cx="51.115" cy="56.868" fill="#a6bbf5" rx="5.558" ry="5.418"/><path fill="#36c" fill-rule="evenodd" d="M92.706 64.093s13.395 8.88 16.409 5.612c3.014-3.267 0 4.743 0 4.743H82.667M40 68.91s10.675 7.337 25.552 7.337 3.64 4.703 3.64 4.703h-29.16" clip-rule="evenodd"/><path fill="#a6bbf5" fill-rule="evenodd" d="M41.695 81.02s58.427-27.433 51.106-13.626 26.223-3.243 26.223-3.243v16.87" clip-rule="evenodd"/><path fill="#fff" d="M40.051 80.432h78.989v1.204H40.051z"/><rect width="43.95" height="1.204" x="47.224" y="91.787" fill="#c8ccd1" rx=".602"/><rect width="48.766" height="1.204" x="47.224" y="106.235" fill="#72777d" rx=".602"/><rect width="19.266" height="1.204" x="47.224" y="138.745" fill="#72777d" rx=".602"/><rect width="43.95" height="1.204" x="68.295" y="138.745" fill="#72777d" rx=".602"/><rect width="10.235" height="1.204" x="47.224" y="114.664" fill="#72777d" rx=".602"/><rect width="10.235" height="1.204" x="102.01" y="114.664" fill="#72777d" rx=".602"/><rect width="40.939" height="1.204" x="59.265" y="114.664" fill="#72777d" rx=".602"/><rect width="10.235" height="1.204" x="47.224" y="134.531" fill="#72777d" rx=".602"/><rect width="22.276" height="1.204" x="90.571" y="134.531" fill="#72777d" rx=".602"/><rect width="29.5" height="1.204" x="59.265" y="134.531" fill="#72777d" rx=".602"/><rect width="14.449" height="1.204" fill="#72777d" rx=".602" transform="matrix(-1 0 0 1 112.245 106.235)"/><rect width="48.766" height="1.204" x="47.224" y="127.306" fill="#72777d" rx=".602"/><rect width="8.429" height="1.204" x="79.735" y="102.021" fill="#72777d" rx=".602"/><rect width="22.276" height="1.204" x="89.97" y="102.021" fill="#72777d" rx=".602"/><rect width="30.704" height="1.204" x="47.224" y="102.021" fill="#72777d" rx=".602"/><rect width="65.021" height="1.204" x="47.224" y="123.092" fill="#72777d" rx=".602"/><rect width="65.021" height="1.204" x="47.224" y="118.877" fill="#72777d" rx=".602"/><rect width="65.021" height="1.204" x="47.224" y="142.959" fill="#72777d" rx=".602"/><rect width="65.021" height="1.204" x="47.224" y="110.45" fill="#72777d" rx=".602"/><rect width="30.704" height="1.204" x="47.224" y="87.572" fill="#72777d" rx=".602"/><circle cx="113.797" cy="144.884" r="15.1" fill="#fff" stroke="#72777d" stroke-width="2"/><path fill="#72777d" fill-rule="evenodd" d="M118.5 138h-9a1.5 1.5 0 0 0-1.5 1.5V153l6-3.75 6 3.75v-13.5a1.5 1.5 0 0 0-1.5-1.5" clip-rule="evenodd"/><g filter="url(#b)"><path fill="#fff" fill-rule="evenodd" d="m210 76.688.252-29.705a2 2 0 0 1 2-1.983h99.633a2 2 0 0 1 2 2v95.302c0 1.754-2.785 2.535-4.539 2.535-2.329 0-2.117 1.833-4.174 2.406s-2.062-2.406-4.266-2.406-2.324 2.406-4.422 2.406-1.96-2.406-4.254-2.406-2.516 2.406-4.53 2.406-1.952-2.406-4.31-2.406-2.348 2.406-4.433 2.406-1.939-2.406-4.144-2.406-2.121 1.835-4.252 2.406-2.51-2.406-4.64-2.406-2.288 2.406-4.341 2.406c-2.052 0-1.722-2.406-4-2.406s-2.531 2.406-4.66 2.406-2.312-2.406-4.528-2.406-1.976 2.406-4.161 2.406-2.265-2.406-4.439-2.406-2.14 2.406-4.279 2.406c-2.14 0-2.042-2.406-4.336-2.406s-2.381 2.406-4.531 2.406-1.962-2.406-3.841-2.406-2.665 3.048-4.717 2.406-1.815-2.406-4.106-2.406c-1.379 0-3.982-.751-3.982-2.13z" clip-rule="evenodd"/></g><rect width="21.659" height="21.653" x="219.844" y="55.827" fill="#f1f4fd" rx="4"/><mask id="c" width="23" height="23" x="219" y="55" maskUnits="userSpaceOnUse" style="mask-type:alpha"><rect width="21.659" height="21.653" x="219.844" y="55.827" fill="#fff" rx="4"/></mask><g mask="url(#c)"><ellipse cx="226.759" cy="61.843" fill="#a6bbf5" rx="3.457" ry="3.497"/><path fill="#36c" fill-rule="evenodd" d="M234.142 68.53s3.893 5.442 4.769 3.44 0 2.906 0 2.906h-7.687m-11.38-3.36s3.181 4.778 7.614 4.778c4.434 0 1.085 3.062 1.085 3.062h-8.69" clip-rule="evenodd"/><path fill="#a6bbf5" fill-rule="evenodd" d="M220.578 78.983s15.81-17.546 13.829-8.716 7.096-2.073 7.096-2.073v10.789" clip-rule="evenodd"/></g><rect width="21.659" height="21.653" x="219.844" y="85.353" fill="#f1f4fd" rx="4"/><mask id="d" width="23" height="23" x="219" y="85" maskUnits="userSpaceOnUse" style="mask-type:alpha"><rect width="21.659" height="21.653" x="219.844" y="85.353" fill="#fff" rx="4"/></mask><g mask="url(#d)"><ellipse cx="226.759" cy="91.37" fill="#a6bbf5" rx="3.457" ry="3.497"/><path fill="#36c" fill-rule="evenodd" d="M234.142 98.057s3.893 5.442 4.769 3.44 0 2.906 0 2.906h-7.687m-11.38-3.36s3.181 4.777 7.614 4.777c4.434 0 1.085 3.063 1.085 3.063h-8.69" clip-rule="evenodd"/><path fill="#a6bbf5" fill-rule="evenodd" d="M220.578 108.509s15.81-17.546 13.829-8.715 7.096-2.074 7.096-2.074v10.789" clip-rule="evenodd"/></g><rect width="21.659" height="21.653" x="219.844" y="114.881" fill="#f1f4fd" rx="4"/><mask id="e" width="23" height="23" x="219" y="114" maskUnits="userSpaceOnUse" style="mask-type:alpha"><rect width="21.659" height="21.653" x="219.844" y="114.881" fill="#fff" rx="4"/></mask><g mask="url(#e)"><ellipse cx="226.759" cy="120.897" fill="#a6bbf5" rx="3.457" ry="3.497"/><path fill="#36c" fill-rule="evenodd" d="M234.142 127.584s3.893 5.442 4.769 3.44 0 2.907 0 2.907h-7.687m-11.38-3.361s3.181 4.778 7.614 4.778c4.434 0 1.085 3.062 1.085 3.062h-8.69" clip-rule="evenodd"/><path fill="#a6bbf5" fill-rule="evenodd" d="M220.578 138.037s15.81-17.546 13.829-8.715 7.096-2.074 7.096-2.074v10.789" clip-rule="evenodd"/></g><path stroke="#c8ccd1" stroke-linecap="round" stroke-width="2" d="M249.225 117.818h12.559"/><path stroke="#72777d" stroke-linecap="round" stroke-width="2" d="M249.225 124.708h38.558"/><path stroke="#c8ccd1" stroke-linecap="round" stroke-width="2" d="M249.225 131.597h53.117"/><path stroke="#a2a9b1" stroke-linecap="round" stroke-width="2" d="M249.225 88.29h12.559"/><path stroke="#72777d" stroke-linecap="round" stroke-width="2" d="M249.225 95.18h38.558"/><path stroke="#a2a9b1" stroke-linecap="round" stroke-width="2" d="M249.225 102.07h53.117m-53.117-43.306h12.559"/><path stroke="#72777d" stroke-linecap="round" stroke-width="2" d="M249.225 65.653h38.558"/><path stroke="#a2a9b1" stroke-linecap="round" stroke-width="2" d="M249.225 72.543h53.117"/><path fill="#fff" stroke="#72777d" stroke-width="2" d="M303.982 124.855c9.002 0 16.3 7.298 16.3 16.3s-7.298 16.3-16.3 16.3-16.3-7.298-16.3-16.3 7.298-16.3 16.3-16.3Z"/><path fill="#72777d" d="M311.053 139.451c.478 0 .866.388.866.865v7.785l-3.461-3.027-3.461 3.027v-7.785c0-.477.387-.865.865-.865zm-8.518 7.759h-6.153v-1.73h6.153zm0-5.19h-6.153v-1.73h6.153zm8.556-5.19h-14.709v-1.73h14.709z"/><path fill="#54595d" fill-rule="evenodd" d="m163.498 89.7-1.199 1.206 4.742 4.742H156.7v1.7h10.341l-4.742 4.75 1.199 1.198 6.798-6.798z" clip-rule="evenodd"/></svg>