<svg xmlns="http://www.w3.org/2000/svg" width="362" height="204" viewBox="0 0 362 204">
	<defs>
		<filter id="a" width="87" height="115.8" x="36" y="39" color-interpolation-filters="sRGB" filterUnits="userSpaceOnUse">
			<feFlood flood-opacity="0" result="BackgroundImageFix"/>
			<feColorMatrix in="SourceAlpha" result="hardAlpha" values="0 0 0 0 0 0 0 0 0 0 0 0 0 0 0 0 0 0 127 0"/>
			<feOffset/>
			<feGaussianBlur stdDeviation="2"/>
			<feColorMatrix values="0 0 0 0 0.2 0 0 0 0 0.4 0 0 0 0 0.8 0 0 0 0.15 0"/>
			<feBlend in2="BackgroundImageFix" result="effect1_dropShadow_2028_42627"/>
			<feBlend in="SourceGraphic" in2="effect1_dropShadow_2028_42627" result="shape"/>
		</filter>
		<filter id="b" width="111.9" height="110.3" x="206" y="41" color-interpolation-filters="sRGB" filterUnits="userSpaceOnUse">
			<feFlood flood-opacity="0" result="BackgroundImageFix"/>
			<feColorMatrix in="SourceAlpha" result="hardAlpha" values="0 0 0 0 0 0 0 0 0 0 0 0 0 0 0 0 0 0 127 0"/>
			<feOffset/>
			<feGaussianBlur stdDeviation="2"/>
			<feColorMatrix values="0 0 0 0 0.2 0 0 0 0 0.4 0 0 0 0 0.8 0 0 0 0.15 0"/>
			<feBlend in2="BackgroundImageFix" result="effect1_dropShadow_2028_42627"/>
			<feBlend in="SourceGraphic" in2="effect1_dropShadow_2028_42627" result="shape"/>
		</filter>
	</defs>
	<path fill="#eaecf0" d="M0 0h362v203H0z"/>
	<g filter="url(#a)">
		<path fill="#fff" fill-rule="evenodd" d="m40 97 .2-52a2 2 0 0 1 2-2H108v9.2a2 2 0 0 0 2 2h9V147c0 1.3-2 2-3.4 2-1.8 0-1.6 1.3-3.2 1.8s-1.6-1.9-3.2-1.9-1.8 1.9-3.4 1.9-1.5-1.9-3.2-1.9-2 1.9-3.5 1.9-1.5-1.9-3.3-1.9-1.7 1.9-3.3 1.9-1.5-1.9-3.2-1.9-1.6 1.4-3.2 1.9-2-1.9-3.6-1.9-1.7 1.9-3.3 1.9-1.3-1.9-3-1.9-2 1.9-3.5 1.9c-1.7 0-1.8-1.9-3.5-1.9s-1.5 1.9-3.2 1.9-1.7-1.9-3.3-1.9-1.7 1.9-3.3 1.9-1.5-1.9-3.3-1.9-1.8 1.9-3.4 1.9c-1.7 0-1.5-1.9-3-1.9-1.4 0-2 2.4-3.5 1.9s-1.4-1.9-3.2-1.9c-1 0-3-.5-3-1.6z" clip-rule="evenodd"/>
	</g>
	<path fill="#c8ccd1" fill-rule="evenodd" d="M108.5 55q-1-.1-1.1-1.1v-9.7q-.1-.9.5-1.1.8-.2 1.5.3l9.2 9.5q.4.4.4 1.2 0 1-1 1z" clip-rule="evenodd"/>
	<ellipse cx="51.1" cy="56.9" fill="#a6bbf5" rx="5.6" ry="5.4"/>
	<path fill="#36c" fill-rule="evenodd" d="M92.7 64s13.4 9 16.4 5.7 0 4.7 0 4.7H82.7M40 69s10.7 7.3 25.6 7.3 3.6 4.7 3.6 4.7H40" clip-rule="evenodd"/>
	<path fill="#a6bbf5" fill-rule="evenodd" d="M41.7 81S100 53.6 92.8 67.4s26.2-3.2 26.2-3.2V81" clip-rule="evenodd"/>
	<path fill="#fff" d="M40 80.4h79v1.2H40z"/>
	<rect width="44" height="1.2" x="47.2" y="91.8" fill="#c8ccd1" rx=".6"/>
	<rect width="48.8" height="1.2" x="47.2" y="106.2" fill="#72777d" rx=".6"/>
	<rect width="19.3" height="1.2" x="47.2" y="138.7" fill="#72777d" rx=".6"/>
	<rect width="44" height="1.2" x="68.3" y="138.7" fill="#72777d" rx=".6"/>
	<rect width="10.2" height="1.2" x="47.2" y="114.7" fill="#72777d" rx=".6"/>
	<rect width="10.2" height="1.2" x="102" y="114.7" fill="#72777d" rx=".6"/>
	<rect width="40.9" height="1.2" x="59.3" y="114.7" fill="#72777d" rx=".6"/>
	<rect width="10.2" height="1.2" x="47.2" y="134.5" fill="#72777d" rx=".6"/>
	<rect width="22.3" height="1.2" x="90.6" y="134.5" fill="#72777d" rx=".6"/>
	<rect width="29.5" height="1.2" x="59.3" y="134.5" fill="#72777d" rx=".6"/>
	<rect width="14.4" height="1.2" fill="#72777d" rx=".6" transform="matrix(-1 0 0 1 112.2 106.2)"/>
	<rect width="48.8" height="1.2" x="47.2" y="127.3" fill="#72777d" rx=".6"/>
	<rect width="8.4" height="1.2" x="79.7" y="102" fill="#72777d" rx=".6"/>
	<rect width="22.3" height="1.2" x="90" y="102" fill="#72777d" rx=".6"/>
	<rect width="30.7" height="1.2" x="47.2" y="102" fill="#72777d" rx=".6"/>
	<rect width="65" height="1.2" x="47.2" y="123.1" fill="#72777d" rx=".6"/>
	<rect width="65" height="1.2" x="47.2" y="118.9" fill="#72777d" rx=".6"/>
	<rect width="65" height="1.2" x="47.2" y="143" fill="#72777d" rx=".6"/>
	<rect width="65" height="1.2" x="47.2" y="110.5" fill="#72777d" rx=".6"/>
	<rect width="30.7" height="1.2" x="47.2" y="87.6" fill="#72777d" rx=".6"/>
	<circle cx="113.8" cy="144.9" r="15.1" fill="#fff" stroke="#72777d" stroke-width="2"/>
	<path fill="#72777d" fill-rule="evenodd" d="M118.5 138h-9a1.5 1.5 0 0 0-1.5 1.5V153l6-3.7 6 3.7v-13.5a1.5 1.5 0 0 0-1.5-1.5" clip-rule="evenodd"/>
	<g filter="url(#b)">
		<path fill="#fff" fill-rule="evenodd" d="m210 76.7.3-29.7a2 2 0 0 1 2-2h99.6a2 2 0 0 1 2 2v95.3c0 1.8-2.8 2.5-4.6 2.5-2.3 0-2 1.9-4.1 2.4s-2-2.4-4.3-2.4-2.3 2.4-4.4 2.4-2-2.4-4.3-2.4-2.5 2.4-4.5 2.4-2-2.4-4.3-2.4-2.4 2.4-4.4 2.4-2-2.4-4.2-2.4-2.1 1.9-4.2 2.4-2.5-2.4-4.7-2.4-2.3 2.4-4.3 2.4-1.7-2.4-4-2.4-2.6 2.4-4.7 2.4-2.3-2.4-4.5-2.4-2 2.4-4.2 2.4-2.2-2.4-4.4-2.4-2.1 2.4-4.3 2.4-2-2.4-4.3-2.4-2.4 2.4-4.6 2.4-2-2.4-3.8-2.4-2.7 3-4.7 2.4-1.8-2.4-4.1-2.4c-1.4 0-4-.7-4-2z" clip-rule="evenodd"/>
	</g>
	<rect width="21.7" height="21.7" x="219.8" y="55.8" fill="#f1f4fd" rx="4"/>
	<mask id="c" width="23" height="23" x="219" y="55" maskUnits="userSpaceOnUse" style="mask-type:alpha">
		<rect width="21.7" height="21.7" x="219.8" y="55.8" fill="#fff" rx="4"/>
	</mask>
	<g mask="url(#c)">
		<circle cx="226.8" cy="61.8" r="3.5" fill="#a6bbf5"/>
		<path fill="#36c" fill-rule="evenodd" d="M234.1 68.5s4 5.5 4.8 3.5 0 2.9 0 2.9h-7.7m-11.4-3.4s3.2 4.8 7.7 4.8 1 3 1 3H220" clip-rule="evenodd"/>
		<path fill="#a6bbf5" fill-rule="evenodd" d="M220.6 79s15.8-17.6 13.8-8.7 7.1-2.1 7.1-2.1V79" clip-rule="evenodd"/>
	</g>
	<rect width="21.7" height="21.7" x="219.8" y="85.4" fill="#f1f4fd" rx="4"/>
	<mask id="d" width="23" height="23" x="219" y="85" maskUnits="userSpaceOnUse" style="mask-type:alpha">
		<rect width="21.7" height="21.7" x="219.8" y="85.4" fill="#fff" rx="4"/>
	</mask>
	<g mask="url(#d)">
		<circle cx="226.8" cy="91.4" r="3.5" fill="#a6bbf5"/>
		<path fill="#36c" fill-rule="evenodd" d="M234.1 98s4 5.5 4.8 3.5 0 2.9 0 2.9h-7.7m-11.4-3.4s3.2 4.8 7.7 4.8 1 3 1 3H220" clip-rule="evenodd"/>
		<path fill="#a6bbf5" fill-rule="evenodd" d="M220.6 108.5s15.8-17.5 13.8-8.7 7.1-2 7.1-2v10.7" clip-rule="evenodd"/>
	</g>
	<rect width="21.7" height="21.7" x="219.8" y="114.9" fill="#f1f4fd" rx="4"/>
	<mask id="e" width="23" height="23" x="219" y="114" maskUnits="userSpaceOnUse" style="mask-type:alpha">
		<rect width="21.7" height="21.7" x="219.8" y="114.9" fill="#fff" rx="4"/>
	</mask>
	<g mask="url(#e)">
		<circle cx="226.8" cy="120.9" r="3.5" fill="#a6bbf5"/>
		<path fill="#36c" fill-rule="evenodd" d="M234.1 127.6s4 5.4 4.8 3.4 0 3 0 3h-7.7m-11.4-3.4s3.2 4.7 7.7 4.7 1 3.1 1 3.1H220" clip-rule="evenodd"/>
		<path fill="#a6bbf5" fill-rule="evenodd" d="M220.6 138s15.8-17.5 13.8-8.7 7.1-2 7.1-2V138" clip-rule="evenodd"/>
	</g>
	<path stroke="#c8ccd1" stroke-linecap="round" stroke-width="2" d="M249.2 117.8h12.6"/>
	<path stroke="#72777d" stroke-linecap="round" stroke-width="2" d="M249.2 124.7h38.6"/>
	<path stroke="#c8ccd1" stroke-linecap="round" stroke-width="2" d="M249.2 131.6h53.1"/>
	<path stroke="#a2a9b1" stroke-linecap="round" stroke-width="2" d="M249.2 88.3h12.6"/>
	<path stroke="#72777d" stroke-linecap="round" stroke-width="2" d="M249.2 95.2h38.6"/>
	<path stroke="#a2a9b1" stroke-linecap="round" stroke-width="2" d="M249.2 102h53.1m-53-43.2h12.5"/>
	<path stroke="#72777d" stroke-linecap="round" stroke-width="2" d="M249.2 65.7h38.6"/>
	<path stroke="#a2a9b1" stroke-linecap="round" stroke-width="2" d="M249.2 72.5h53.1"/>
	<path fill="#fff" stroke="#72777d" stroke-width="2" d="M304 124.9a16.3 16.3 0 1 1 0 32.6 16.3 16.3 0 0 1 0-32.6Z"/>
	<path fill="#72777d" d="M311 139.5q.9 0 1 .8v7.8l-3.5-3-3.5 3v-7.8q0-.8.9-.8zm-8.5 7.7h-6.1v-1.7h6.1zm0-5.2h-6.1v-1.7h6.1zm8.6-5.2h-14.7v-1.7H311z"/>
	<path fill="#54595d" fill-rule="evenodd" d="m163.5 89.7-1.2 1.2 4.7 4.7h-10.3v1.7H167l-4.7 4.8 1.2 1.2 6.8-6.8z" clip-rule="evenodd"/>
</svg>
