<svg xmlns="http://www.w3.org/2000/svg" width="163" height="161" viewBox="0 0 163 161"><defs><filter id="a" width="163" height="160.681" x="0" y="0" color-interpolation-filters="sRGB" filterUnits="userSpaceOnUse"><feFlood flood-opacity="0" result="BackgroundImageFix"/><feColorMatrix in="SourceAlpha" result="hardAlpha" values="0 0 0 0 0 0 0 0 0 0 0 0 0 0 0 0 0 0 127 0"/><feOffset/><feGaussianBlur stdDeviation="2"/><feColorMatrix values="0 0 0 0 0.2 0 0 0 0 0.4 0 0 0 0 0.8 0 0 0 0.15 0"/><feBlend in2="BackgroundImageFix" result="effect1_dropShadow_2365_99137"/><feBlend in="SourceGraphic" in2="effect1_dropShadow_2365_99137" result="shape"/></filter></defs><g filter="url(#a)"><path fill="#fff" fill-rule="evenodd" d="m4 51.28.385-45.297a2 2 0 0 1 2-1.983H157a2 2 0 0 1 2 2v145.321c0 1.962-2.935 2.984-4.709 2.147-.664-.313-1.361-.509-2.065-.509-3.474 0-3.157 2.735-6.227 3.59-3.07.854-3.076-3.59-6.365-3.59s-3.467 3.59-6.597 3.59-2.925-3.59-6.348-3.59-3.753 3.59-6.758 3.59-2.913-3.59-6.431-3.59-3.503 3.59-6.614 3.59c-3.112 0-2.894-3.59-6.183-3.59-3.29 0-3.165 2.738-6.344 3.59-3.178.852-3.745-3.59-6.923-3.59s-3.415 3.59-6.477 3.59-2.57-3.59-5.968-3.59-3.777 3.59-6.953 3.59c-3.175 0-3.45-3.59-6.756-3.59s-2.948 3.59-6.208 3.59-3.38-3.59-6.623-3.59-3.193 3.59-6.385 3.59-3.046-3.59-6.47-3.59c-3.422 0-3.551 3.59-6.76 3.59s-2.926-3.59-5.731-3.59-3.976 4.548-7.037 3.59-2.709-3.59-6.127-3.59c-2.056 0-5.941-1.12-5.941-3.177V51.279Z" clip-rule="evenodd"/></g><rect width="32.316" height="32.307" x="18.687" y="20.154" fill="#f1f4fd" rx="4"/><mask id="b" width="34" height="33" x="18" y="20" maskUnits="userSpaceOnUse" style="mask-type:alpha"><rect width="32.316" height="32.307" x="18.687" y="20.154" fill="#fff" rx="4"/></mask><g mask="url(#b)"><ellipse cx="29.009" cy="29.131" fill="#a6bbf5" rx="5.158" ry="5.218"/><path fill="#36c" fill-rule="evenodd" d="M40.03 39.107s5.81 8.12 7.116 5.133c1.307-2.988 0 4.336 0 4.336H35.677m-16.99-5.013s4.747 7.128 11.361 7.128 1.619 4.57 1.619 4.57H18.7" clip-rule="evenodd"/><path fill="#a6bbf5" fill-rule="evenodd" d="M19.78 54.703S43.367 28.524 40.412 41.7 51 38.605 51 38.605v16.098" clip-rule="evenodd"/></g><rect width="32.316" height="32.307" x="18.687" y="64.208" fill="#f1f4fd" rx="4"/><mask id="c" width="34" height="33" x="18" y="64" maskUnits="userSpaceOnUse" style="mask-type:alpha"><rect width="32.316" height="32.307" x="18.687" y="64.208" fill="#fff" rx="4"/></mask><g mask="url(#c)"><ellipse cx="29.009" cy="73.185" fill="#a6bbf5" rx="5.158" ry="5.218"/><path fill="#36c" fill-rule="evenodd" d="M40.03 83.162s5.81 8.12 7.116 5.132 0 4.337 0 4.337H35.677m-16.99-5.014s4.747 7.128 11.361 7.128 1.619 4.569 1.619 4.569H18.7" clip-rule="evenodd"/><path fill="#a6bbf5" fill-rule="evenodd" d="M19.78 98.758s23.588-26.18 20.633-13.004S51 82.66 51 82.66v16.098" clip-rule="evenodd"/></g><rect width="32.316" height="32.307" x="18.687" y="108.264" fill="#f1f4fd" rx="4"/><mask id="d" width="34" height="33" x="18" y="108" maskUnits="userSpaceOnUse" style="mask-type:alpha"><rect width="32.316" height="32.307" x="18.687" y="108.264" fill="#fff" rx="4"/></mask><g mask="url(#d)"><ellipse cx="29.009" cy="117.24" fill="#a6bbf5" rx="5.158" ry="5.218"/><path fill="#36c" fill-rule="evenodd" d="M40.03 127.217s5.81 8.12 7.116 5.133c1.307-2.988 0 4.336 0 4.336H35.677m-16.99-5.013s4.747 7.128 11.361 7.128 1.619 4.569 1.619 4.569H18.7" clip-rule="evenodd"/><path fill="#a6bbf5" fill-rule="evenodd" d="M19.78 142.813s23.588-26.179 20.633-13.003S51 126.715 51 126.715v16.098" clip-rule="evenodd"/></g><path stroke="#c8ccd1" stroke-linecap="round" stroke-width="2" d="M62.042 113.139h19.723"/><path stroke="#72777d" stroke-linecap="round" stroke-width="2" d="M62.042 123.418h58.513"/><path stroke="#c8ccd1" stroke-linecap="round" stroke-width="2" d="M62.042 133.698h80.236"/><path stroke="#a2a9b1" stroke-linecap="round" stroke-width="2" d="M62.042 69.083h19.723"/><path stroke="#72777d" stroke-linecap="round" stroke-width="2" d="M62.042 79.362h58.513"/><path stroke="#a2a9b1" stroke-linecap="round" stroke-width="2" d="M62.042 89.642h80.236M62.042 25.028h19.723"/><path stroke="#72777d" stroke-linecap="round" stroke-width="2" d="M62.042 35.307h58.513"/><path stroke="#a2a9b1" stroke-linecap="round" stroke-width="2" d="M62.042 45.587h80.236"/></svg>