<?xml version="1.0" encoding="UTF-8"?>
<svg xmlns="http://www.w3.org/2000/svg" width="232" height="232" fill="none" viewBox="0 0 232 232">
	<g clip-rule="evenodd" filter="url(#a)">
		<path fill="#fff" fill-rule="evenodd" d="m50 113.8.3-87.8a2 2 0 0 1 2-2h110v16.5a2 2 0 0 0 2 2h16.1v155c0 2-3 2.9-4.9 2.4h-.8c-2.9 0-2.6 2.3-5.2 3s-2.6-3-5.4-3-2.9 3-5.5 3-2.5-3-5.4-3-3.1 3-5.6 3-2.5-3-5.4-3-3 3-5.6 3-2.5-3-5.2-3-2.7 2.3-5.4 3-3.1-3-5.8-3-2.9 3-5.4 3-2.2-3-5-3-3.2 3-6 3-2.8-3-5.6-3-2.5 3-5.2 3-2.9-3-5.6-3-2.7 3-5.4 3-2.5-3-5.4-3-3 3-5.7 3-2.5-3-4.8-3-3.4 3.8-6 3c-2.5-.8-2.2-3-5.1-3-1.7 0-5-1-5-2.7z"/>
		<path stroke="#a2a9b1" stroke-linecap="round" stroke-width="2" d="m50 113.8.3-87.8a2 2 0 0 1 2-2h110v16.5a2 2 0 0 0 2 2h16.1v155c0 2-3 2.9-4.9 2.4h-.8c-2.9 0-2.6 2.3-5.2 3s-2.6-3-5.4-3-2.9 3-5.5 3-2.5-3-5.4-3-3.1 3-5.6 3-2.5-3-5.4-3-3 3-5.6 3-2.5-3-5.2-3-2.7 2.3-5.4 3-3.1-3-5.8-3-2.9 3-5.4 3-2.2-3-5-3-3.2 3-6 3-2.8-3-5.6-3-2.5 3-5.2 3-2.9-3-5.6-3-2.7 3-5.4 3-2.5-3-5.4-3-3 3-5.7 3-2.5-3-4.8-3-3.4 3.8-6 3c-2.5-.8-2.2-3-5.1-3-1.7 0-5-1-5-2.7z"/>
	</g>
	<path fill="#c8ccd1" stroke="#a2a9b1" stroke-width="2" d="M163 24a1 1 0 0 1 1 .3L180.5 41l.2.1q.3.3.4 1-.1.9-1 1h-16.8a1 1 0 0 1-1-1V25q0-.6.7-1Z"/>
	<circle cx="69" cy="47" r="9" fill="#a2a9b1"/>
	<path fill="#a2a9b1" fill-rule="evenodd" d="M136.6 59s21.8 14.7 26.6 9.3 0 7.9 0 7.9h-42.9M51 67s17.3 12.2 41.5 12.2 6 7.8 6 7.8H51" clip-rule="evenodd"/>
	<path fill="#c8ccd1" fill-rule="evenodd" d="M53.8 87s95-45.5 83-22.5C125 87.4 179.4 59 179.4 59v28" clip-rule="evenodd"/>
	<path fill="#fff" d="M51 86h128.3v2H51z"/>
	<rect width="72.5" height="2" x="61.9" y="105" fill="#c8ccd1" rx="1"/>
	<g fill="#a2a9b1">
		<rect width="80.5" height="2" x="61.9" y="128.9" rx="1"/>
		<rect width="31.8" height="2" x="61.9" y="182.9" rx="1"/>
		<rect width="72.5" height="2" x="96.7" y="182.9" rx="1"/>
		<rect width="16.9" height="2" x="61.9" y="142.9" rx="1"/>
		<rect width="16.9" height="2" x="152.3" y="142.9" rx="1"/>
		<rect width="67.6" height="2" x="81.8" y="142.9" rx="1"/>
		<rect width="16.9" height="2" x="61.9" y="175.9" rx="1"/>
		<rect width="36.8" height="2" x="133.5" y="175.9" rx="1"/>
		<rect width="48.7" height="2" x="81.8" y="175.9" rx="1"/>
		<rect width="23.8" height="2" rx="1" transform="matrix(-1 0 0 1 169.2 129)"/>
		<rect width="80.5" height="2" x="61.9" y="163.9" rx="1"/>
		<rect width="13.9" height="2" x="115.6" y="122" rx="1"/>
		<rect width="36.8" height="2" x="132.5" y="122" rx="1"/>
		<rect width="50.7" height="2" x="61.9" y="122" rx="1"/>
		<rect width="107.3" height="2" x="61.9" y="156.9" rx="1"/>
		<rect width="107.3" height="2" x="61.9" y="149.9" rx="1"/>
		<rect width="107.3" height="2" x="61.9" y="189.9" rx="1"/>
		<rect width="107.3" height="2" x="61.9" y="135.9" rx="1"/>
		<rect width="50.7" height="2" x="61.9" y="98" rx="1"/>
	</g>
	<circle cx="167" cy="188" r="29" fill="#c8ccd1" stroke="#a2a9b1" stroke-width="2"/>
	<path fill="#fff" fill-rule="evenodd" d="M176 173h-18a3 3 0 0 0-3 3v27l12-7.5 12 7.5v-27a3 3 0 0 0-3-3" clip-rule="evenodd"/>
	<defs>
		<filter id="a" width="140.4" height="189" x="45" y="19" color-interpolation-filters="sRGB" filterUnits="userSpaceOnUse">
			<feFlood flood-opacity="0" result="BackgroundImageFix"/>
			<feColorMatrix in="SourceAlpha" result="hardAlpha" values="0 0 0 0 0 0 0 0 0 0 0 0 0 0 0 0 0 0 127 0"/>
			<feOffset/>
			<feGaussianBlur stdDeviation="2"/>
			<feColorMatrix values="0 0 0 0 0.961 0 0 0 0 0.961 0 0 0 0 0.961 0 0 0 1 0"/>
			<feBlend in2="BackgroundImageFix" result="effect1_dropShadow_1267_64771"/>
			<feBlend in="SourceGraphic" in2="effect1_dropShadow_1267_64771" result="shape"/>
		</filter>
	</defs>
</svg>
