<?xml version="1.0" encoding="UTF-8"?>
<svg xmlns="http://www.w3.org/2000/svg" width="156" height="156" fill="none" viewBox="0 0 156 156">
	<g filter="url(#a)">
		<path fill="#fff" fill-rule="evenodd" d="m17 53.3.3-35.3a2 2 0 0 1 2-2h118a2 2 0 0 1 2 2v112.8c0 2-3.1 3-5 2.7h-.4c-2.8 0-2.5 2.1-5 2.8-2.4.7-2.4-2.8-5-2.8-2.5 0-2.7 2.8-5.2 2.8s-2.3-2.8-5-2.8-3 2.8-5.3 2.8c-2.4 0-2.3-2.8-5-2.8s-2.8 2.8-5.3 2.8c-2.4 0-2.3-2.8-4.8-2.8-2.6 0-2.5 2.1-5 2.8-2.6.7-3-2.8-5.5-2.8s-2.7 2.8-5.1 2.8-2-2.8-4.7-2.8-3 2.8-5.5 2.8-2.7-2.8-5.3-2.8-2.4 2.8-5 2.8c-2.5 0-2.6-2.8-5.1-2.8-2.6 0-2.6 2.8-5 2.8-2.6 0-2.5-2.8-5.2-2.8s-2.8 2.8-5.3 2.8-2.3-2.8-4.5-2.8-3.2 3.6-5.6 2.8c-2.4-.7-2.1-2.8-4.8-2.8-1.6 0-4.7-.9-4.7-2.5z" clip-rule="evenodd"/>
	</g>
	<rect width="25.5" height="25.5" x="28.6" y="28.7" fill="#f1f4fd" rx="4"/>
	<mask id="b" width="27" height="27" x="28" y="28" maskUnits="userSpaceOnUse" style="mask-type:alpha">
		<rect width="25.5" height="25.5" x="28.6" y="28.7" fill="#fff" rx="4"/>
	</mask>
	<g mask="url(#b)">
		<circle cx="36.7" cy="35.8" r="4.1" fill="#ffcf4f"/>
		<path fill="#ff9500" fill-rule="evenodd" d="M45.4 43.7s4.6 6.4 5.6 4c1-2.3 0 3.5 0 3.5h-9m-13.4-4s3.7 5.6 9 5.6 1.2 3.6 1.2 3.6H28.6" clip-rule="evenodd"/>
		<path fill="#ffcf4f" fill-rule="evenodd" d="M29.4 56S48 35.3 45.7 45.7s8.4-2.4 8.4-2.4V56" clip-rule="evenodd"/>
	</g>
	<rect width="25.5" height="25.5" x="28.6" y="63.5" fill="#f1f4fd" rx="4"/>
	<mask id="c" width="27" height="26" x="28" y="63" maskUnits="userSpaceOnUse" style="mask-type:alpha">
		<rect width="25.5" height="25.5" x="28.6" y="63.5" fill="#fff" rx="4"/>
	</mask>
	<g mask="url(#c)">
		<circle cx="36.7" cy="70.6" r="4.1" fill="#ffcf4f"/>
		<path fill="#ff9500" fill-rule="evenodd" d="M45.4 78.4s4.6 6.4 5.6 4c1-2.3 0 3.5 0 3.5h-9m-13.4-4s3.7 5.7 9 5.7 1.2 3.6 1.2 3.6H28.6" clip-rule="evenodd"/>
		<path fill="#ffcf4f" fill-rule="evenodd" d="M29.4 90.7S48 70.1 45.7 80.5s8.4-2.5 8.4-2.5v12.7" clip-rule="evenodd"/>
	</g>
	<rect width="25.5" height="25.5" x="28.6" y="98.2" fill="#f1f4fd" rx="4"/>
	<mask id="d" width="27" height="26" x="28" y="98" maskUnits="userSpaceOnUse" style="mask-type:alpha">
		<rect width="25.5" height="25.5" x="28.6" y="98.2" fill="#fff" rx="4"/>
	</mask>
	<g mask="url(#d)">
		<circle cx="36.7" cy="105.3" r="4.1" fill="#ffcf4f"/>
		<path fill="#ff9500" fill-rule="evenodd" d="M45.4 113.2s4.6 6.4 5.6 4c1-2.3 0 3.5 0 3.5h-9m-13.4-4s3.7 5.6 9 5.6 1.2 3.6 1.2 3.6H28.6" clip-rule="evenodd"/>
		<path fill="#ffcf4f" fill-rule="evenodd" d="M29.4 125.5s18.6-20.7 16.3-10.3 8.4-2.4 8.4-2.4v12.7" clip-rule="evenodd"/>
	</g>
	<path stroke="#c8ccd1" stroke-linecap="round" stroke-width="2" d="M63.2 101.9h15.1"/>
	<path stroke="#72777d" stroke-linecap="round" stroke-width="2" d="M63.2 110h45.7"/>
	<path stroke="#c8ccd1" stroke-linecap="round" stroke-width="2" d="M63.2 118H126"/>
	<path stroke="#a2a9b1" stroke-linecap="round" stroke-width="2" d="M63.2 67.1h15.1"/>
	<path stroke="#72777d" stroke-linecap="round" stroke-width="2" d="M63.2 75.2h45.7"/>
	<path stroke="#a2a9b1" stroke-linecap="round" stroke-width="2" d="M63.2 83.3H126m-62.8-51h15.1"/>
	<path stroke="#72777d" stroke-linecap="round" stroke-width="2" d="M63.2 40.5h45.7"/>
	<path stroke="#a2a9b1" stroke-linecap="round" stroke-width="2" d="M63.2 48.6H126"/>
	<circle cx="127.8" cy="129.2" r="19.4" fill="#fff" stroke="#72777d" stroke-width="2"/>
	<path fill="#72777d" d="M135.9 127.2q.9 0 1 1v9.1l-4-3.5-4.1 3.5v-9.1q0-1 1-1zm-10 9h-7.3v-2h7.3zm0-6h-7.3v-2h7.3zm10-6.1h-17.3v-2H136z"/>
	<defs>
		<filter id="a" width="130.2" height="128.4" x="13" y="12" color-interpolation-filters="sRGB" filterUnits="userSpaceOnUse">
			<feFlood flood-opacity="0" result="BackgroundImageFix"/>
			<feColorMatrix in="SourceAlpha" result="hardAlpha" values="0 0 0 0 0 0 0 0 0 0 0 0 0 0 0 0 0 0 127 0"/>
			<feOffset/>
			<feGaussianBlur stdDeviation="2"/>
			<feColorMatrix values="0 0 0 0 0.2 0 0 0 0 0.4 0 0 0 0 0.8 0 0 0 0.15 0"/>
			<feBlend in2="BackgroundImageFix" result="effect1_dropShadow_1346_11896"/>
			<feBlend in="SourceGraphic" in2="effect1_dropShadow_1346_11896" result="shape"/>
		</filter>
	</defs>
</svg>
