<?xml version="1.0" encoding="UTF-8"?>
<svg xmlns="http://www.w3.org/2000/svg" xmlns:xlink="http://www.w3.org/1999/xlink" width="176" height="811" viewBox="0 0 176 811">
	<svg xmlns="http://www.w3.org/2000/svg" id="Commons-logo_sister" width="47" height="47" viewBox="-306 -517 612 822">
		<defs>
			<clipPath id="aa">
				<circle r="298"/>
			</clipPath>
		</defs>
		<circle r="100" fill="#900"/>
		<g fill="#069">
			<g id="ab" clip-path="url(#aa)">
				<path d="M-11 180v118h22V180"/>
				<path d="m-43 185 43-75 43 75"/>
			</g>
			<g id="ac">
				<use xlink:href="#ab" transform="rotate(45)"/>
				<use xlink:href="#ab" transform="rotate(90)"/>
				<use xlink:href="#ab" transform="rotate(135)"/>
			</g>
			<use xlink:href="#ac" transform="scale(-1 1)"/>
			<path fill="none" stroke="#069" stroke-width="84" d="M-181.02-181.02a256 256 0 1 0 362.04 0c-70.71-70.71-177.49-34.65-198.7-190.21"/>
			<path d="M-23-515s-36 135-80 185 116-62 170-5-90-180-90-180"/>
		</g>
	</svg>
	<svg xmlns="http://www.w3.org/2000/svg" id="MediaWiki-logo_sister" width="42" height="42" y="47" viewBox="-1 -1 42 42">
		<defs id="bdefs11">
			<linearGradient id="bgradient" x1="0" x2="100" y1="100" y2="0" gradientUnits="userSpaceOnUse">
				<stop id="bstop2" offset="0%" stop-color="#0a00b2"/>
				<stop id="bstop4" offset="50%" stop-color="red"/>
				<stop id="bstop6" offset="100%" stop-color="#fffc00"/>
			</linearGradient>
			<linearGradient xlink:href="#bgradient" id="blinearGradient923" x1="0" x2="100" y1="100" y2="0" gradientUnits="userSpaceOnUse"/>
			<linearGradient xlink:href="#bgradient" id="blinearGradient925" x1="0" x2="100" y1="100" y2="0" gradientUnits="userSpaceOnUse"/>
			<linearGradient xlink:href="#bgradient" id="blinearGradient927" x1="0" x2="100" y1="100" y2="0" gradientUnits="userSpaceOnUse"/>
			<linearGradient xlink:href="#bgradient" id="blinearGradient929" x1="0" x2="100" y1="100" y2="0" gradientUnits="userSpaceOnUse"/>
			<linearGradient xlink:href="#bgradient" id="blinearGradient931" x1="0" x2="100" y1="100" y2="0" gradientUnits="userSpaceOnUse"/>
			<linearGradient xlink:href="#bgradient" id="blinearGradient933" x1="0" x2="100" y1="100" y2="0" gradientUnits="userSpaceOnUse"/>
			<linearGradient xlink:href="#bgradient" id="blinearGradient935" x1="0" x2="100" y1="100" y2="0" gradientUnits="userSpaceOnUse"/>
			<linearGradient xlink:href="#bgradient" id="blinearGradient937" x1="0" x2="100" y1="100" y2="0" gradientUnits="userSpaceOnUse"/>
			<linearGradient xlink:href="#bgradient" id="blinearGradient939" x1="0" x2="100" y1="100" y2="0" gradientUnits="userSpaceOnUse"/>
			<linearGradient xlink:href="#bgradient" id="blinearGradient941" x1="0" x2="100" y1="100" y2="0" gradientUnits="userSpaceOnUse"/>
			<linearGradient xlink:href="#bgradient" id="blinearGradient943" x1="0" x2="100" y1="100" y2="0" gradientUnits="userSpaceOnUse"/>
			<linearGradient xlink:href="#bgradient" id="blinearGradient945" x1="0" x2="100" y1="100" y2="0" gradientUnits="userSpaceOnUse"/>
			<linearGradient xlink:href="#bgradient" id="blinearGradient947" x1="0" x2="100" y1="100" y2="0" gradientUnits="userSpaceOnUse"/>
			<linearGradient xlink:href="#bgradient" id="blinearGradient949" x1="0" x2="100" y1="100" y2="0" gradientUnits="userSpaceOnUse"/>
			<linearGradient xlink:href="#bgradient" id="blinearGradient951" x1="0" x2="100" y1="100" y2="0" gradientUnits="userSpaceOnUse"/>
			<linearGradient xlink:href="#bgradient" id="blinearGradient953" x1="0" x2="100" y1="100" y2="0" gradientUnits="userSpaceOnUse"/>
			<linearGradient xlink:href="#bgradient" id="blinearGradient955" x1="0" x2="100" y1="100" y2="0" gradientUnits="userSpaceOnUse"/>
			<linearGradient xlink:href="#bgradient" id="blinearGradient957" x1="0" x2="100" y1="100" y2="0" gradientUnits="userSpaceOnUse"/>
			<linearGradient xlink:href="#bgradient" id="blinearGradient959" x1="0" x2="100" y1="100" y2="0" gradientUnits="userSpaceOnUse"/>
			<linearGradient xlink:href="#bgradient" id="blinearGradient961" x1="0" x2="100" y1="100" y2="0" gradientUnits="userSpaceOnUse"/>
			<linearGradient xlink:href="#bgradient" id="blinearGradient963" x1="0" x2="100" y1="100" y2="0" gradientUnits="userSpaceOnUse"/>
			<linearGradient xlink:href="#bgradient" id="blinearGradient965" x1="0" x2="100" y1="100" y2="0" gradientUnits="userSpaceOnUse"/>
			<linearGradient xlink:href="#bgradient" id="blinearGradient967" x1="0" x2="100" y1="100" y2="0" gradientUnits="userSpaceOnUse"/>
			<linearGradient xlink:href="#bgradient" id="blinearGradient969" x1="0" x2="100" y1="100" y2="0" gradientUnits="userSpaceOnUse"/>
			<linearGradient xlink:href="#bgradient" id="blinearGradient971" x1="0" x2="100" y1="100" y2="0" gradientUnits="userSpaceOnUse"/>
			<style id="bstyle9">
				.bpetal{opacity:.65}.fcls-1{fill:#069;fill-rule:evenodd}
			</style>
		</defs>
		<g id="bpetals" fill="url(#blinearGradient971)" transform="matrix(.4 0 0 .4 0 .106)">
			<path id="bpath13" fill="url(#blinearGradient923)" d="M33.6 14.8a17 17 0 0 0 3.12 11.14 11.5 11.5 0 0 0 6.85 4.3 3 3 0 0 0 2.39-.71 11.9 11.9 0 0 0 3.63-10.84c-1.25-7.54-6.19-12.43-12.4-17A32.5 32.5 0 0 0 33.6 14.8" class="bpetal" opacity=".65"/>
			<path id="bpath15" fill="url(#blinearGradient925)" d="M25.12 20.23A17 17 0 0 0 31 30.2a11.5 11.5 0 0 0 7.74 2.38 3 3 0 0 0 2.12-1.3 11.9 11.9 0 0 0 .7-11.42c-3.16-6.95-9.2-10.4-16.37-13.2a32.5 32.5 0 0 0-.08 13.58" class="bpetal" opacity=".65"/>
			<path id="bpath17" fill="url(#blinearGradient927)" d="M18.33 27.68a17 17 0 0 0 8.27 8.09 11.5 11.5 0 0 0 8.09.3 3 3 0 0 0 1.7-1.81 11.9 11.9 0 0 0-2.26-11.2c-4.86-5.9-11.58-7.67-19.24-8.52a32.5 32.5 0 0 0 3.44 13.14" class="bpetal" opacity=".65"/>
			<path id="bpath19" fill="url(#blinearGradient929)" d="M13.7 36.63a17 17 0 0 0 10.08 5.67 11.5 11.5 0 0 0 7.9-1.8 3 3 0 0 0 1.17-2.2 11.9 11.9 0 0 0-5.09-10.23c-6.22-4.45-13.17-4.42-20.79-3.26a32.5 32.5 0 0 0 6.73 11.82" class="bpetal" opacity=".65"/>
			<path id="bpath21" fill="url(#blinearGradient931)" d="M11.54 46.47a17 17 0 0 0 11.21 2.87 11.5 11.5 0 0 0 7.16-3.79 3 3 0 0 0 .57-2.42 11.9 11.9 0 0 0-7.57-8.56C15.75 31.88 9.05 33.7 2 36.8a32.5 32.5 0 0 0 9.55 9.67" class="bpetal" opacity=".65"/>
			<path id="bpath23" fill="url(#blinearGradient933)" d="M12 56.53a17 17 0 0 0 11.58-.12 11.5 11.5 0 0 0 5.93-5.51 3 3 0 0 0-.07-2.5 11.9 11.9 0 0 0-9.53-6.3C12.3 41.35 6.3 44.84.28 49.66A32.5 32.5 0 0 0 12 56.53" class="bpetal" opacity=".65"/>
			<path id="bpath25" fill="url(#blinearGradient935)" d="M15.06 66.13a17 17 0 0 0 11.14-3.11 11.5 11.5 0 0 0 4.3-6.86 3 3 0 0 0-.71-2.38 11.9 11.9 0 0 0-10.84-3.64c-7.54 1.26-12.43 6.2-17 12.4a32.5 32.5 0 0 0 13.11 3.6" class="bpetal" opacity=".65"/>
			<path id="bpath27" fill="url(#blinearGradient937)" d="M20.5 74.62a17 17 0 0 0 9.96-5.9A11.5 11.5 0 0 0 32.84 61a3 3 0 0 0-1.3-2.12 12 12 0 0 0-11.42-.7c-6.96 3.16-10.4 9.2-13.21 16.37a32.5 32.5 0 0 0 13.59.08" class="bpetal" opacity=".65"/>
			<path id="bpath29" fill="url(#blinearGradient939)" d="M27.94 81.4a17 17 0 0 0 8.1-8.26 11.5 11.5 0 0 0 .3-8.1 3 3 0 0 0-1.82-1.7 11.9 11.9 0 0 0-11.2 2.27c-5.9 4.86-7.67 11.57-8.52 19.24a32.5 32.5 0 0 0 13.14-3.44" class="bpetal" opacity=".65"/>
			<path id="bpath31" fill="url(#blinearGradient941)" d="M36.9 86.04a17 17 0 0 0 5.67-10.09 11.5 11.5 0 0 0-1.81-7.89 3 3 0 0 0-2.2-1.18 11.9 11.9 0 0 0-10.22 5.1c-4.45 6.21-4.42 13.16-3.26 20.78a32.5 32.5 0 0 0 11.81-6.73" class="bpetal" opacity=".65"/>
			<path id="bpath33" fill="url(#blinearGradient943)" d="M46.73 88.2a17 17 0 0 0 2.88-11.22 11.5 11.5 0 0 0-3.8-7.15 3 3 0 0 0-2.41-.58 11.9 11.9 0 0 0-8.57 7.57c-2.68 7.16-.85 13.86 2.24 20.92a32.5 32.5 0 0 0 9.66-9.55" class="bpetal" opacity=".65"/>
			<path id="bpath35" fill="url(#blinearGradient945)" d="M56.8 87.73a17 17 0 0 0-.12-11.57 11.5 11.5 0 0 0-5.52-5.93 3 3 0 0 0-2.48.07 11.9 11.9 0 0 0-6.32 9.53c-.74 7.6 2.76 13.6 7.58 19.63a32.5 32.5 0 0 0 6.86-11.73" class="bpetal" opacity=".65"/>
			<path id="bpath37" fill="url(#blinearGradient947)" d="M66.4 84.67a17 17 0 0 0-3.12-11.14 11.5 11.5 0 0 0-6.85-4.3 3 3 0 0 0-2.39.71 11.9 11.9 0 0 0-3.63 10.84c1.25 7.54 6.19 12.43 12.4 17a32.5 32.5 0 0 0 3.59-13.1" class="bpetal" opacity=".65"/>
			<path id="bpath39" fill="url(#blinearGradient949)" d="M74.88 79.24A17 17 0 0 0 69 69.28a11.5 11.5 0 0 0-7.74-2.38 3 3 0 0 0-2.12 1.3 11.9 11.9 0 0 0-.7 11.41c3.16 6.96 9.2 10.4 16.37 13.22a32.5 32.5 0 0 0 .08-13.6" class="bpetal" opacity=".65"/>
			<path id="bpath41" fill="url(#blinearGradient951)" d="M81.67 71.8a17 17 0 0 0-8.27-8.1 11.5 11.5 0 0 0-8.09-.3 3 3 0 0 0-1.7 1.81 11.9 11.9 0 0 0 2.26 11.2c4.86 5.9 11.58 7.67 19.24 8.52a32.5 32.5 0 0 0-3.44-13.14" class="bpetal" opacity=".65"/>
			<path id="bpath43" fill="url(#blinearGradient953)" d="M86.3 62.84a17 17 0 0 0-10.08-5.67 11.5 11.5 0 0 0-7.9 1.8 3 3 0 0 0-1.18 2.2 11.9 11.9 0 0 0 5.1 10.23c6.22 4.44 13.17 4.41 20.79 3.25a32.5 32.5 0 0 0-6.73-11.8" class="bpetal" opacity=".65"/>
			<path id="bpath45" fill="url(#blinearGradient955)" d="M88.46 53a17 17 0 0 0-11.21-2.87 11.5 11.5 0 0 0-7.15 3.78 3 3 0 0 0-.58 2.43 12 12 0 0 0 7.57 8.56c7.16 2.68 13.86.85 20.92-2.24A32.5 32.5 0 0 0 88.46 53" class="bpetal" opacity=".65"/>
			<path id="bpath47" fill="url(#blinearGradient957)" d="M88 42.94a17 17 0 0 0-11.58.12 11.5 11.5 0 0 0-5.93 5.51 3 3 0 0 0 .07 2.5 11.9 11.9 0 0 0 9.53 6.3c7.61.74 13.61-2.76 19.63-7.57A32.5 32.5 0 0 0 88 42.94" class="bpetal" opacity=".65"/>
			<path id="bpath49" fill="url(#blinearGradient959)" d="M84.94 33.34a17 17 0 0 0-11.14 3.11 11.5 11.5 0 0 0-4.3 6.86 3 3 0 0 0 .71 2.38 11.9 11.9 0 0 0 10.84 3.64c7.54-1.26 12.43-6.2 17-12.4a32.5 32.5 0 0 0-13.11-3.6" class="bpetal" opacity=".65"/>
			<path id="bpath51" fill="url(#blinearGradient961)" d="M79.5 24.85a17 17 0 0 0-9.96 5.9 11.5 11.5 0 0 0-2.38 7.73 3 3 0 0 0 1.31 2.12 11.9 11.9 0 0 0 11.41.7c6.96-3.16 10.4-9.2 13.21-16.37a32.5 32.5 0 0 0-13.59-.08" class="bpetal" opacity=".65"/>
			<path id="bpath53" fill="url(#blinearGradient963)" d="M72.06 18.06a17 17 0 0 0-8.1 8.27 11.5 11.5 0 0 0-.3 8.1 3 3 0 0 0 1.82 1.7 11.9 11.9 0 0 0 11.2-2.27c5.9-4.86 7.67-11.58 8.52-19.24a32.5 32.5 0 0 0-13.14 3.44" class="bpetal" opacity=".65"/>
			<path id="bpath55" fill="url(#blinearGradient965)" d="M63.1 13.43a17 17 0 0 0-5.67 10.09 11.5 11.5 0 0 0 1.81 7.89 3 3 0 0 0 2.2 1.18 11.9 11.9 0 0 0 10.22-5.09c4.45-6.22 4.42-13.17 3.26-20.79a32.5 32.5 0 0 0-11.81 6.72" class="bpetal" opacity=".65"/>
			<path id="bpath57" fill="url(#blinearGradient967)" d="M53.27 11.28a17 17 0 0 0-2.88 11.2 11.5 11.5 0 0 0 3.8 7.16 3 3 0 0 0 2.41.57 11.9 11.9 0 0 0 8.57-7.56c2.68-7.16.85-13.86-2.24-20.92a32.5 32.5 0 0 0-9.66 9.55" class="bpetal" opacity=".65"/>
			<path id="bpath59" fill="url(#blinearGradient969)" d="M43.2 11.74a17 17 0 0 0 .13 11.57 11.5 11.5 0 0 0 5.5 5.93 3 3 0 0 0 2.5-.07 11.9 11.9 0 0 0 6.31-9.53c.74-7.6-2.76-13.6-7.57-19.63a32.5 32.5 0 0 0-6.87 11.73" class="bpetal" opacity=".65"/>
		</g>
	</svg>
	<svg xmlns="http://www.w3.org/2000/svg" id="Meta-Wiki-logo_sister" width="37" height="37" y="89" viewBox="-1 -1 902 902">
		<path fill="#396" d="M316.6 181.29a298 298 0 0 0-84.9 62.92q17.78.36 35.67-1.64a324 324 0 0 1 49.24-61.28zm28.16-12.21c25.37-1.2 50.57.53 75.13 5.15a273 273 0 0 0 23.77-24.2 298 298 0 0 0-98.9 19.05m-15.58 27.53a303 303 0 0 0-35.33 41.7 275 275 0 0 0 47.07-14.63zm18.37-7.9 11.62 26.78a274 274 0 0 0 40.07-24.47 304 304 0 0 0-51.69-2.31m121.5-38.12a294 294 0 0 1-25.66 28.98 323 323 0 0 1 123.72 63.92 429 429 0 0 0 36.36-51.27 302 302 0 0 0-134.42-41.63M215.02 263.43a301.5 301.5 0 0 0-59.17 127.59 429 429 0 0 0 63.1 7.44 323 323 0 0 1 36.4-134.74c-13.5.84-26.99.72-40.33-.29m210.67-67.8a293 293 0 0 1-58.6 38.15l53.6 123.56a427 427 0 0 0 133.39-98.8 303 303 0 0 0-128.4-62.92zM279.2 261.2a302.6 302.6 0 0 0-40.38 137.63 427 427 0 0 0 163.6-33.37l-53.54-123.45a294 294 0 0 1-69.68 19.2zm341.09-58.16a449 449 0 0 1-38.22 53.7 317 317 0 0 1 72.95 104.27q5.46 12.58 9.76 25.33a595 595 0 0 0 55.62-66.22 298 298 0 0 0-100.11-117.08M152.54 410.7a298 298 0 0 0 19.74 152.77 595 595 0 0 0 86.35 3.21 320 320 0 0 1-13.7-27.78 317 317 0 0 1-26.21-120.45 449 449 0 0 1-66.18-7.75m416.42-138.93a446 446 0 0 1-140.3 103.9l59 136.01a595 595 0 0 0 161.17-109.5 301 301 0 0 0-12.16-33.2 298 298 0 0 0-67.71-97.22zm-330.42 147c.83 37.6 8.83 75.62 24.69 112.2a301 301 0 0 0 17.69 34.49 595 595 0 0 0 188.46-45.64l-59-136.01a447 447 0 0 1-171.84 34.96m490.98-77.6a614 614 0 0 1-58.28 66.97 317.6 317.6 0 0 1-.26 159.46 737 737 0 0 0 73.57-60.8 298.3 298.3 0 0 0-15.03-165.64zM181.8 584.47A298.4 298.4 0 0 0 294.65 706.6a736 736 0 0 0 92.83-13.43 318 318 0 0 1-117.15-107.03 614 614 0 0 1-88.53-1.66zm472.75-160.3A614 614 0 0 1 495.64 530.1l48.33 111.4a745 745 0 0 0 100.95-55.77q0-.05.03-.08a299 299 0 0 0 9.6-161.47zM293.27 584.5a299 299 0 0 0 124.77 101.55 747 747 0 0 0 107.63-36.47l-48.33-111.4a615 615 0 0 1-184.07 46.32m442.24-42.63a756 756 0 0 1-74.23 56.92 325 325 0 0 1-78.13 120.01c75.09-37.13 128.26-102.14 152.36-176.93m-408.99 181.5c70.12 31.63 152.1 36.35 228.88 7.47a325 325 0 0 1-138.66-23.92 757 757 0 0 1-90.22 16.44zm305.27-105.72a766 766 0 0 1-79.84 42.26l18.8 43.35a304 304 0 0 0 61.04-85.6zm-181.73 80.33a304 304 0 0 0 102.37 13.3l-18.8-43.35a768 768 0 0 1-83.57 30.05"/>
		<path fill="#900" d="M450 0C296.44 0 160.78 77.05 79.56 194.56l87 50.25C230.2 157.11 333.44 100 450 100s219.81 57.1 283.44 144.81l87-50.25C739.22 77.05 603.56 0 450 0"/>
		<path fill="#069" d="M32.19 282.75A448 448 0 0 0 0 450c0 231.5 175.1 422.36 400 447.25V796.37C230.47 772.08 100 626.23 100 450a349 349 0 0 1 19.94-116.63zm835.62 0-87.75 50.63A349 349 0 0 1 800 450c0 176.22-130.47 322.08-300 346.38v100.87C724.9 872.35 900 681.5 900 450c0-59.1-11.45-115.53-32.19-167.25"/>
	</svg>
	<svg xmlns="http://www.w3.org/2000/svg" id="Wikibooks-logo_sister" width="37" height="37" y="126" viewBox="-1 -1 302 302">
		<path fill="#fdfcf8" fill-rule="evenodd" d="M141.66 103.54c5.27 66.02 16.8 129.94 51.2 191.49l13 .1 82.3-73.42-78.44-198.2-56.54 54z"/>
		<path fill="#f4eed7" fill-rule="evenodd" d="M75.84 103.6c5.28 66.03 18.78 130.8 53.18 192.34l20.34.18 61.96-77.72-67.41-194.83-56.54 54.01z"/>
		<path fill="#e9ddaf" fill-rule="evenodd" d="M.22 102.2c5.38 69.28 27.01 131.33 52.46 191.7l26.8-.33 70.4-80.04-81.6-191.37-56.54 54.01L.22 102.19z"/>
		<path fill="#5f96d3" d="M213.33 4.06c-27.19 26.3-54.07 52.38-54.07 52.38l9.66 19.65c13.1-12.98 26.26-24.4 38.81-37.09 26.44 58.04 44.45 104.81 66.6 166.65 7.26 20.08 5.78 20.98-11.56 31.84-27.86 13.85-36.67 22.94-69.87 58.26h22.72c27.75-25.1 38.05-33.95 72.8-52.26 12.3-7.1 13.99-16.06 8.94-30-16.26-45.2-51.49-142.6-84.03-209.43"/>
		<path fill="#2a62a1" fill-rule="evenodd" d="M142.45 4.69C122.57 18.1 107.22 37.43 89.92 54l7.1 22.63c13.54-10.67 25.32-23.54 37.5-35.72l65.65 164.69c3.79 11.15-2.17 21.07-14.15 31.87-14.35 11.53-43.9 38.42-57.29 58.9h20.38c21.38-21.96 25.24-24.94 49.6-46.03 16.34-16.68 31.1-25.22 23.4-46.6z"/>
		<path fill="#15304f" fill-rule="evenodd" d="M75.33 3.63c-5.3 1.78-9.71 5.2-13.85 8.8C5.4 66.42 3.14 68.7 3.14 68.7.19 71.43-.06 75.44-.02 79.47l.24 22.72s25.9-25.18 64.57-62.4C85.61 94.01 107.34 147.96 128.73 202c2.93 8.16-4.08 14.85-12.96 23.78-12.28 11.97-37.95 36.62-64.22 69.53h26.34l63.31-69.43c6.02-8.28 13.5-16.37 10.35-23.88z"/>
	</svg>
	<svg xmlns="http://www.w3.org/2000/svg" id="Wikidata-logo_sister" width="49" height="49" y="163" viewBox="-1 -1 1052 592">
		<path fill="#900" d="M120 545h30V45h-30zm60 0h90V45h-90zM300 45v500h90V45z"/>
		<path fill="#396" d="M840 545h30V45h-30zm60-500v500h30V45zM420 545h30V45h-30zm60-500v500h30V45z"/>
		<path fill="#069" d="M540 545h90V45h-90zm120 0h30V45h-30zm60-500v500h90V45z"/>
	</svg>
	<svg xmlns="http://www.w3.org/2000/svg" id="Wikifunctions-logo_sister" width="50" height="50" y="212" data-name="Layer 1" viewBox="-1 -1 50 50">
		<g id="fLayer_2" data-name="Layer 2" transform="translate(3.95 3.959)scale(.1742)">
			<g id="fLayer_1-2" data-name="Layer 1-2">
				<path id="fpath13" d="M180.84 81.24q-2.85 0-6.43.35a56 56 0 0 1-6.07.37q-2.5 0-6.19-.37c-2.67-.23-5-.34-6.9-.35q-1.07 0-1.07 1.67t.71 1.66q7.99.36 8 6.2a14 14 0 0 1-1.19 5.35l-16.25 37.79 2.64 5.93 19.2-43.25q2.98-6.78 5.77-9.19a12.5 12.5 0 0 1 7.2-2.83 1.3 1.3 0 0 0 1-.59 2.2 2.2 0 0 0 .45-1.32q-.04-1.42-.87-1.42" class="fcls-1"/>
				<path id="fpath15" d="M123 84.57q8 .38 8 5.83a13 13 0 0 1-1.79 5.72l-.33.61 2.65 5.93 3.28-6.07q4.22-7.38 7-9.46a15 15 0 0 1 7.47-2.56q1.3 0 1.31-1.91c0-1-.24-1.42-.71-1.42-2 0-4.55.14-7.56.41q-3.57.3-5.41.31-2.57 0-6.55-.37a93 93 0 0 0-7-.35q-.35 0-.71.54a2 2 0 0 0-.36 1.13q-.03 1.65.71 1.66" class="fcls-1"/>
				<path id="fpath17" d="M92.63 133.78 75.32 94.69a9 9 0 0 1-1-3.57 5.4 5.4 0 0 1 2.3-4.53 12 12 0 0 1 6.28-2q.59 0 .59-1.66.01-1.67-1-1.67-3.98 0-9.16.35-4.94.38-8.58.37c-2.43-.01-5-.13-7.61-.37q-4.35-.34-8.34-.35c-.63 0-1 .55-1 1.67a1.7 1.7 0 0 0 .42 1.15 1.2 1.2 0 0 0 .9.51 16 16 0 0 1 8.62 3.13q3.1 2.52 5.89 8.89l21.92 50.27z" class="fcls-1"/>
				<path id="fpath19" d="M137.51 164.71a1.6 1.6 0 0 0 1.44 1H152a1.54 1.54 0 0 0 1.54-1.54 2 2 0 0 0-.14-.64L121.52 92a19 19 0 0 0-4.11-5.83 16 16 0 0 0-6.33-3.61A34 34 0 0 0 101 81.3 41 41 0 0 0 89.23 83a1.55 1.55 0 0 0-1.06 1.73L90 95.81a1.5 1.5 0 0 0 1.5 1.29 2 2 0 0 0 .5-.1 20 20 0 0 1 6.42-1 15 15 0 0 1 4.76.64 8 8 0 0 1 3.08 1.86 10 10 0 0 1 2 3 98 98 0 0 1 1.74 4l1.29 3.27-29.11 54.83a1.56 1.56 0 0 0 .93 2 2 2 0 0 0 .52.09h15.42a1.5 1.5 0 0 0 1.41-.92l.09-.17 19.6-36.22z" style="fill:#396"/>
				<path id="fpath21" d="M43.07 59.93a90.23 90.23 0 0 1 143.14-.43l20.32-13.65a114.68 114.68 0 0 0-184 .74z" style="fill:#900"/>
				<path id="fpath23" d="M198.47 80.68a90 90 0 0 1 6.71 34.12c0 49.84-40.54 90.94-90.38 90.94s-90.37-41.1-90.37-90.94a90 90 0 0 1 6.51-33.62L10.13 67.67A114 114 0 0 0 0 114.8c0 63.31 51.5 115.37 114.8 115.37s114.81-52.06 114.81-115.37a114 114 0 0 0-10.52-48z" style="fill:#069"/>
			</g>
		</g>
	</svg>
	<svg xmlns="http://www.w3.org/2000/svg" id="Wikimedia-logo_black" width="42" height="42" y="262" viewBox="-1 -1 1026 1026">
		<clipPath id="ga">
			<path d="m0-33 471 471v363h82V438l471-471v1057H0"/>
		</clipPath>
		<g clip-path="url(#ga)">
			<path d="M511 224a288 288 0 1 0 2 0"/>
			<path fill="none" stroke="#000" stroke-width="116" d="M511 102a410 410 0 1 0 2 0"/>
		</g>
		<path d="M511 28a158 158 0 1 0 2 0z"/>
	</svg>
	<svg xmlns="http://www.w3.org/2000/svg" id="Wikipedia_wordmark" width="176" height="32" y="304" viewBox="-1 -1 502 87">
		<path d="M55.27 22.07 53.3 18.1c-3.33-6.62-3.26-6.97-6.63-7.4-.94-.14-1.43-.26-1.43-.72v-2.1l.28-.2h19.65l.52.16v2.1q0 .7-1.04.7l-1.43.2c-3.6.3-3 1.76-.62 6.53l22.72 46.46.78.2 20.16-47.83q1.05-2.9-.3-4.1c-.9-.8-1.55-1.25-3.9-1.35l-1.88-.1q-.34 0-.66-.23a.7.7 0 0 1-.32-.58v-2l.3-.2h22.77l.23.2v2q0 .8-.92.8-4.48.22-6.63 1.94a11.4 11.4 0 0 0-3.36 4.86s-18.55 42.43-24.9 56.54c-2.42 4.62-4.8 4.2-6.9-.14C75.35 64.7 62.86 37 62.86 37l-7.6-14.93z"/>
		<path d="M91.66 7.65s-12.8-.04-18.52 0l-.28.2v2q0 .34.3.57.33.24.67.24l.92.1c2.33.1 3.4.7 3.72 1.1.56.67.83 1.4-.52 4.34L54.03 63.9l-.62-.15s-17.13-36.13-22.1-48.2a9 9 0 0 1-.73-2.76q0-1.86 3.32-2l2.57-.1q1.05 0 1.04-.82V7.9l-.23-.2s-20.52-.03-24.76 0l-.22.2v2.08q0 .55 1.43.72 3.93.2 5.15 1.24c.82.7 1.7 2.47 2.84 5.23 6.22 14.96 19.45 41.65 25.9 56.86 1.85 4.15 4.2 4.8 7.02-.13 4.9-9.1 18.2-36.87 18.2-36.87l10.47-19.6c1.2-2.05 2.4-3.9 2.98-4.76 1.1-1.57 1.7-1.87 4.7-2q.9 0 .9-.83V7.86l-.22-.2zm38.94 61.93c0 2.3 1.05 3.64 4.38 3.95l2.2.2c.3 0 .6.22.6.63v2.2l-.1.2s-7.9-.2-11.12-.2c-2.9 0-11.03.2-11.03.2l-.2-.2v-2.2c0-.4.3-.62.72-.62l2.08-.2c3.44-.32 4.48-1.98 4.48-3.96V34.95c0-2.3-1.25-2.92-4.47-3.22l-2.08-.22c-.4 0-.72-.08-.72-.4v-2.4l.1-.2s8.22.2 11.44.2a726 726 0 0 0 10.82-.2l.1.2V31c0 .3-.22.5-.63.5l-2.2.22c-3.2.3-4.36 1.14-4.36 3.23zm30.7 0c0 2.3 1.36 3.43 4.37 3.95l1.15.2c.3.1.62.22.62.63v2.2l-.1.2s-6.55-.2-9.67-.2c-2.92 0-11.44.2-11.44.2l-.2-.2v-2.2c0-.4.3-.62.72-.62l2.08-.2c3.12-.32 4.47-1.98 4.47-3.96V34.95c0-2.3-1.15-2.92-4.47-3.22l-2.08-.22c-.42 0-.73-.08-.73-.4v-2.4l.1-.2s8.53.2 11.75.2c2.92 0 9.47-.2 9.47-.2l.1.2V31c0 .3-.2.4-.62.5l-1.15.22c-3.22.62-4.36 1.14-4.36 3.23v15.7c3.44 0 5.4-1.76 10-6.65 4.15-4.58 7.37-8.42 7.37-10.4 0-.84-.93-1.77-3-2.1-.43-.1-.64-.2-.64-.5v-2.4l.1-.1s8.43.2 11.45.2c2.7 0 7.28-.2 7.28-.2l.3.1V31c0 .3-.3.5-.82.5-4.06.32-6.87.53-10.6 4.8l-8.95 10.3c-1.78 1.86-2.4 3-2.4 3.84 0 .62.4 1.14.93 1.76l15.7 18.93c1.25 1.45 3.75 2.08 5.83 2.5l.52.1c.3.1.73.3.73.62v2.18l-.3.1s-5.52-.1-8.43-.1c-2.6 0-6.34.1-6.34.1l-.1-.1v-1.25c0-1.35-.1-2.5-1.57-4.15l-11.54-14.36c-1.56-2.08-3.23-2.6-5.5-2.6v15.4zm56.07 0c0 2.3 1.04 3.64 4.37 3.95l2.2.2c.3 0 .6.22.6.63v2.2l-.1.2s-7.9-.2-11.12-.2c-2.9 0-11.03.2-11.03.2l-.2-.2v-2.2c0-.4.3-.62.7-.62l2.1-.2c3.43-.32 4.47-1.98 4.47-3.96V34.95c0-2.3-1.25-2.92-4.48-3.22l-2.1-.22c-.4 0-.7-.08-.7-.4v-2.4l.1-.2s8.2.2 11.43.2a726 726 0 0 0 10.82-.2l.1.2V31c0 .3-.2.5-.62.5l-2.2.22c-3.2.3-4.36 1.14-4.36 3.23v34.63zm22.48-34.43c0-3.22-1.36-3.33-6.24-3.64-.62 0-.72-.3-.72-.5v-2.4l.2-.1c1.57 0 7.7.2 10.72.2 2.9 0 7.07-.2 10.92-.2 14.76 0 17.46 7.27 17.46 12.7 0 6.23-3 16-17.77 16-2.6 0-4.67-.2-6.55-1.04V70.1c0 2.28 1.25 2.8 4.58 3.32l2.08.3c.43.12.74.22.74.64v2.18l-.1.2s-8.32-.2-11.54-.2c-2.9 0-10.7.2-10.7.2l-.12-.2v-2.18c0-.42.2-.52.63-.63l2.2-.3c3.2-.43 4.25-1.36 4.25-3.34V35.14zm8 18.1c2.08.84 4.68.94 6.76.94 6.26 0 9.26-3.76 9.26-11.76 0-8.95-4.05-10.92-9.77-10.92-5 0-6.25.93-6.25 3.64zm42.25 23.3c-3.13 0-10.3.2-10.3.2l-.1-.2v-2.3c0-.2.1-.5.62-.5l2.4-.22c3.22-.3 4.16-2.4 4.16-4.47V34.74c0-2.4-1.25-2.8-4.17-3l-2.38-.23c-.63-.08-.63-.3-.63-.4v-2.4l.1-.2s8.1.2 11.23.2h15.3c3.1 0 10.5-.2 10.5-.2l.2.2c.1 4.47.84 8.54 1.57 12.48l-2.6.42c-1.14-3.85-3.1-9.36-9.77-9.36h-8.32c-1.97 0-3 .73-3 2.5V49.8h7.8c2.9 0 3.63-1.25 4.05-3.33l.62-2.2c0-.3.2-.52.62-.52h1.76c.2 0 .2.1.2.3-.2 2.3-.6 5.22-.6 7.7 0 2.6.4 4.8.6 7.2l-.2.2H308q-.76-.02-.74-.52l-.52-2.3c-.4-2.07-1.35-3.22-4.06-3.22h-7.8v15.92c0 1.97 1.14 3.95 3.02 3.95h9.88c5.3 0 8.22-3.32 9.47-8.73l2.6.3-2.1 11.97-.2.2s-6.14-.2-9.26-.2h-18.2zm39.1-2.81 2.4-.2c3.12-.32 4.16-1.26 4.16-4.48V34.74c0-2.7-.73-2.7-4.16-3l-2.28-.23c-.42 0-.74-.2-.74-.5v-2.3l.1-.2s9.16.2 11.03.2c1.98 0 11.04-.2 13.74-.2 17.37 0 25.9 10.8 25.9 24.64 0 18.2-12.9 23.6-24.44 23.6-8.32 0-11.95-.2-15.18-.2-3.12 0-11.03.2-11.03.2l-.1-.2v-2.18c-.02-.3.2-.62.6-.62zm23.2 0c11.44 0 17.9-4.26 17.9-18.82 0-10.82-2.4-23.4-19.87-23.4-4.06 0-6.66.62-6.66 3.22v34.32c0 2.9.72 4.68 8.63 4.68m51.5-4.16c0 2.3 1.03 3.64 4.36 3.95l2.2.2c.3 0 .6.22.6.63v2.2l-.1.2s-7.9-.2-11.12-.2c-2.9 0-11.02.2-11.02.2l-.2-.2v-2.2c0-.4.3-.62.7-.62l2.1-.2c3.43-.32 4.47-1.98 4.47-3.96V34.95c0-2.3-1.26-2.92-4.48-3.22l-2.1-.22c-.4 0-.7-.08-.7-.4v-2.4l.1-.2s8.2.2 11.42.2a726 726 0 0 0 10.82-.2l.1.2V31c0 .3-.2.5-.62.5l-2.2.22c-3.2.3-4.35 1.14-4.35 3.23v34.63zm32.03 3.95 3.02.2c.42 0 .83.33.83.84v1.98l-.2.2s-11.34-.2-13.84-.2c-2.7 0-9.36.2-9.36.2l-.2-.2v-1.98c0-.5.3-.83.82-.83 4.58-.3 7.17-1.14 10.1-7.8l23.07-54.08c1.14-2.7 1.98-3.75 3.54-3.75 1.46 0 2 1.05 2.8 3.13l21.33 56.37c1.46 4.06 3.54 5.62 7.7 6.03l1.15.1c.52 0 1.04.3 1.04.84v1.97l-.3.2s-8.02-.2-12.08-.2c-3.64 0-13.83.2-13.83.2l-.1-.2v-1.97c0-.53.2-.84.74-.84l2.9-.2c3.96-.3 5.43-1.57 4.38-4.48l-6.34-17.58h-21.63c-2.5 0-3.12.42-3.64 1.77l-6.03 15.08c-1.04 2.6.32 4.9 4.16 5.2zM461.4 47.1l-10.07-27.76h-.2l-10.4 26.42c-.43 1.04.3 1.35 2.58 1.35h18.1z"/>
	</svg>
	<svg xmlns="http://www.w3.org/2000/svg" id="Wikiquote-logo_sister" width="42" height="42" y="336" viewBox="-65.5 -178.5 302 357">
		<defs>
			<radialGradient id="ia" cx="0" cy="0" r="59.1" gradientUnits="userSpaceOnUse">
				<stop offset="0%" stop-color="#00003b"/>
				<stop offset="100%" stop-color="#002f64"/>
			</radialGradient>
			<clipPath id="ib">
				<path d="m-25 0 300 300L575 0 275-300z"/>
			</clipPath>
		</defs>
		<circle r="59.1" fill="url(#ia)"/>
		<g fill="none" clip-path="url(#ib)">
			<circle r="101" stroke="#003b6f" stroke-width="29"/>
			<circle r="156.5" stroke="#3b6fa0" stroke-width="30.4"/>
			<circle r="215.7" stroke="#6fa0d0" stroke-width="31.4"/>
		</g>
	</svg>
	<svg xmlns="http://www.w3.org/2000/svg" id="Wikisource-logo_sister" width="39" height="39" y="378" viewBox="-1 -1 412 432">
		<g fill-rule="evenodd">
			<path fill="#608ab4" d="M203.7 0C135.42.46 75 35.98 38.06 90.23h333.88C334.76 35.63 273.84 0 205.02 0z"/>
			<path fill="#375493" d="M26.2 109.84A222 222 0 0 0 0 214.99C0 333.67 91.86 430 205.02 430S410 333.67 410 214.99c0-38.2-9.5-74.05-26.18-105.15z"/>
			<path fill="#d6dde3" d="M38.06 90.23a217 217 0 0 0-11.85 19.6h357.61a217 217 0 0 0-11.88-19.6z"/>
			<path fill="#7bbce5" d="M292.56 24.1q-1.27.05-2.73.5c-9.13 14.58-9.1 62.88-8.98 73.33h.06c13.52 3 31.42-.45 32.02-13.39 1.03-17.05 2.06-33.58-6.98-44.2-8.26 3.76-6.7-11.5-10.05-14.92-.84-.96-2-1.34-3.33-1.31z"/>
			<path fill="#fff" d="M289.83 24.6c-4.81 1.48-10.68 5.85-13.57 7.26-2.52.27-7.2.08-10.69.97-7.5 1.93-14.32 6.5-18.26 13.7-5.08-14.77-16 3.39-28.94 13.85-7.17-5.4-21.6-16.17-34.85-23.1-10.65 5.39-21.8 23.62-28.44 25.16-6.89 1.29-16.6.53-20.64 5.4-6.72 6.95-8.8 14.9-10.09 22.36 15.76 5.57 32.29 5.74 48.05 3.6 8.95-2.14 15.33.87 24.54.53 27.97 1.2 58.26-2.21 83.9 3.6-.11-10.45-.14-58.75 9-73.32z"/>
			<path fill="#7bbce5" d="M196.43 53.7c3.36 10.12 6.28 20.23 5.16 30.34-1.2 6.25 1.47 5.82 6.46 3.34 4.91-2.66 7.5-5.57 14.73-7.97 5.6-1.54 1.63-5.65-1.04-8.48-7.98-7.56-16.66-12.33-25.31-17.22z"/>
			<path fill="#294584" d="M225.13 109.84c5.88 77.83 58.43 87.4 91.5 71.66-16.53-16.27-10.53-49.44 7.1-49.8 32.64-.8 23.35 59.85 23.36 89.29 17.84-3.61 16.67-70.78 12.88-111.15z"/>
			<path fill="#e0e9ea" d="m56.13 109.84 1.91 20.1c4.32 7.87 7.53 15.71 6.63 23.58 8.53-2.1 13.61-3.19 18.2 5.5 20.06 12.43 39.12 13.9 57.88 12.07 3.82 45.16 2.7 81.49 1.1 135.47 11.4 18.84 22.8 36.7 34.2 55.53 6.53 11.45 18.01 15.07 27.02 1.53l23.13-10.4v11.5c11.85 2.97 23.57 7.48 18.2 19.76-4.1 7.93-1.8 11.46 9.86 6.16 10.3-5 16.65 2.75 22.03 4.12-7.66-8.12-1.07-24.1-.83-40.6 11-1 23.55-10.92 34.55-11.92 22.6-21.83 26.5-29.96 26.46-58.16 2.27-7.31 5.53-9.24 3.86-21.94 1.3-7.87 3.09-18.15 4.37-26.02l2.58-15.16-.2.03c0-29.44 9.3-90.08-23.34-89.3-17.64.37-23.64 33.54-7.1 49.81a67 67 0 0 1-12.2 4.41c1.35 7.68-4.23 15.55-11.53 15.88-7.28-.64-18 6.55-24.79 23.05-10.86 22.78-20.74 2.96-24.7-3.16-5.09-6.72 1.16-12.97-12.79-8.91-9.2 2.83-20.87 4.7-23.66-9.13-11.76-11.89-23.03-22.32-34.79-34.2-4.7-5.57-.79-10.14-.75-12.1v-.2l-.04-.09-.09-.22-.03-.06-.03-.03-.1-.1-.12-.09-.07-.03q-.08-.04-.18-.06c-4.59-2.88-10.15.59-16.22 3.1-15.83 2.89-22.01.1-23.72-8.23.09-13.76-7.69-12.32-20.4-10.41-36.63 5.2-42.55-7.7-53.23-31.08z"/>
			<path fill="#4d8ac0" d="M57.2 109.84c10.67 23.37 16.6 36.27 53.23 31.08 12.7-1.92 20.48-3.35 20.4 10.4 1.7 8.34 7.89 11.12 23.72 8.23 6.06-2.5 11.62-5.97 16.21-3.1l.2.07.05.03.13.1.1.09.02.03.04.06.1.22.02.1v.18c-.03 1.96-3.94 6.54.76 12.1 11.76 11.89 23.02 22.32 34.79 34.2 2.8 13.84 14.46 11.97 23.66 9.14 13.95-4.06 7.7 2.19 12.79 8.9 3.96 6.13 13.84 25.95 24.7 3.17 6.8-16.5 17.5-23.7 24.8-23.05 7.3-.33 12.87-8.2 11.53-15.88-32.45 8.21-74.12-7.26-79.32-76.07z"/>
			<path fill="#d6dde3" d="M166.93 199.26c-10.56.68-5.05 35.8-3.9 52.43 1.57 16.37 5.23 12.52 16.72 5.38 5.28 10.66 2.07 16.61-5.4 23.51-5.57 5.23-8.76 13.05-3.93 22.04 1.47 2.45 2.71 3.5 4.43 7.35l3.42 6.88c1.33 5.06-.17 8.2-2.39 10.91-2.05 2.93-2.45 5.88.22 13.98 1.46 4.7-2.53 10.32 3.65 15.26a37 37 0 0 0 8.17 4.87c-2.38-6.9-2.45-16.86-1.29-25.42.79-8.07 1.34-13.08 8.74-18.57 6.46-3.29 4.66-20.67 5.21-31.01l.22.15v-.15c13.82-2.9 6.13-13.9 1.89-24.45l-33.78-62.9a6 6 0 0 0-1.86-.26z"/>
			<path fill="#608ab4" d="m168.91 199.5 33.78 62.92c4.24 10.55 11.93 21.54-1.89 24.45 1.23 7.36 10.4 13.77 20.56 12.9 10.57-.67 18.26 7.2 21.74 15.14.46-8.76 1.54-17.45 3.68-26.04 1.36-4.25 9.1-8.01 2.67-13.67-26.04-28.53-51.15-50.95-79.32-75.25a9 9 0 0 0-1.22-.44z"/>
			<path fill="#236798" d="M200.59 286.87c-.55 10.34 1.24 27.72-5.22 31.01-7.4 5.49-7.95 10.5-8.74 18.57-1.16 8.57-1.1 18.55 1.3 25.45a33 33 0 0 0 7.6 2.2c4.47.4 7.28 1.5 16.71-.23 8.26-.94 13.22-4.96 22.66-6.37 5.15-1.01 8.64-2.97 8.36-10.8-.4-10.68-.7-21.28-.16-31.79-3.48-7.94-11.17-15.8-21.74-15.13-10.05.85-19.12-5.4-20.52-12.66v-.06l-.25-.2z"/>
			<path fill="#608ab4" d="M339.42 276.45c-.87 2.4-2 4.53-2.95 7.63.04 28.2-3.86 36.33-26.46 58.16-.2.05-6.67 15.13-12.16 19.07-9.27 6.81-8.7 13-12.13 20.45-2.5 3.76-5.94 4.37-8.43 3.69-1.55-1.23-3.12-1.8-4.68-3.66-.1 3.04.12 5.82.91 8.25l.1.22v.03q.64 1.33 1.25 2.66l.07.1v.02q.56.87 1.28 1.66l-.44-.12c9.5 15.1 22.9 19.82 40.1 13.88a91 91 0 0 0 20.43-12.04c5-4.72 10.95-13.58 1.57-14.16-1.34-.35-2.08-.7-2.45-1.07l-.06-.06q-.06-.07-.1-.16l-.1-.21-.02-.07v-.18c.02-1.35 2.59-3.27.62-7.16-1.34-5.96 4.37-11.6 8.46-13.1l-8.46-18.36c.2-4.01 8.14-6.13 6.85-13.63 2.3-18.85 5.4-46.84-3.2-51.84"/>
			<path fill="#236798" d="M288.7 202.2c-6.8 1.82-15.01 9.1-20.58 22.63-2.55 5.34-5.05 8.34-7.42 9.73.24 23.26 5.8 39.82 17.28 48.9-3.4 13.45-6.8 32-.62 43.24-10.44-3.29-6.19 17.6-9.27 26.39-5.22 14.62-9.81 13.98-14.71 15.25 4.47 5.09 10.23 10.49 18.85 13.67v.06l.13.25c.64.97 3.53 2.03 4.93 3.13 2.5.68 5.93.07 8.42-3.7 3.45-7.44 2.87-13.62 12.13-20.44 5.37-3.85 11.68-18.35 12.16-19.07-18.33-10.26-27-29.8-24.04-48.62.86-5.2 4.27-11.02-.3-19.39-5.49-23-2-49.77 3.04-72.04z"/>
		</g>
	</svg>
	<svg xmlns="http://www.w3.org/2000/svg" id="Wikispecies-logo_sister" width="42" height="42" y="417" viewBox="-1 -1 943 1105">
		<defs>
			<linearGradient id="ka">
				<stop offset="0" stop-color="#00090e"/>
				<stop offset=".1" stop-color="#082e45"/>
				<stop offset=".5" stop-color="#0a6997"/>
				<stop offset=".9" stop-color="#082e45"/>
				<stop offset="1" stop-color="#00090e"/>
			</linearGradient>
			<linearGradient id="kg">
				<stop offset="0" stop-color="#375d72"/>
				<stop offset=".1" stop-color="#407b9b"/>
				<stop offset=".5" stop-color="#a0c0cf"/>
				<stop offset=".9" stop-color="#407b9b"/>
				<stop offset="1" stop-color="#375d72"/>
			</linearGradient>
			<linearGradient id="kc">
				<stop offset="0" stop-color="#0f3119"/>
				<stop offset=".1" stop-color="#01703b"/>
				<stop offset=".5" stop-color="#89c4ae"/>
				<stop offset=".9" stop-color="#01703b"/>
				<stop offset="1" stop-color="#0f3119"/>
			</linearGradient>
			<linearGradient id="ke">
				<stop offset="0" stop-color="#476c5a"/>
				<stop offset=".1" stop-color="#52a27d"/>
				<stop offset=".5" stop-color="#a7d2be"/>
				<stop offset=".9" stop-color="#52a27d"/>
				<stop offset="1" stop-color="#476c5a"/>
			</linearGradient>
			<radialGradient id="kj" cx="510" cy="110" r="210" gradientUnits="userSpaceOnUse">
				<stop offset=".04" stop-color="#d8aba5"/>
				<stop offset=".4" stop-color="#ad604e"/>
				<stop offset=".6" stop-color="#9c4029"/>
				<stop offset=".7" stop-color="#92331f"/>
				<stop offset="1" stop-color="#43180f"/>
			</radialGradient>
			<radialGradient id="ki" cx="470.5" cy="650" r="430" gradientUnits="userSpaceOnUse">
				<stop offset=".8" stop-color="#4f8fb3"/>
				<stop offset=".95" stop-color="#0c5178"/>
				<stop offset="1" stop-color="#002d4a"/>
			</radialGradient>
			<clipPath id="kh">
				<path d="m0 199 470.5 428L941 199v904H0z"/>
			</clipPath>
		</defs>
		<g stroke-width="0">
			<g fill="url(#ka)">
				<path id="kf" d="M213 218c39 137 436 101 436 202v90c0-111-404.5-64.7-436-200"/>
			</g>
			<g fill="url(#ka)">
				<path id="kd" d="M649 800c0-94.5-411-72.4-411-192v90c0 112.5 411 89.5 411 192"/>
			</g>
			<use xlink:href="#kb" fill="url(#kc)" transform="matrix(-1 0 0 1 941 0)"/>
			<use xlink:href="#kd" fill="url(#ke)" transform="matrix(-1 0 0 1 941 0)"/>
			<use xlink:href="#kf" fill="url(#ke)" transform="matrix(-1 0 0 1 941 0)"/>
			<g fill="url(#kg)">
				<path id="kb" d="M649 420c0 99.7-411 81-411 188v90c0-103.7 411-91.8 411-188"/>
			</g>
		</g>
		<circle cx="470.5" cy="628" r="388.5" fill="none" stroke="url(#ki)" stroke-width="100" clip-path="url(#kh)"/>
		<circle cx="470.5" cy="161" r="125" fill="url(#kj)" stroke="#555"/>
	</svg>
	<svg xmlns="http://www.w3.org/2000/svg" id="Wikiversity-logo_sister" width="43" height="37" y="459" viewBox="-1 -1 43 37">
		<path fill="#006499" d="M20.36.06q-.72.1-1.45 1.07-.61.83-1.14 2.23h5.16a9 9 0 0 0-1.15-2.25q-.74-.94-1.4-1.04zm1.6.14q.22.22.4.47.76 1.05 1.35 2.7h3.6A9.8 9.8 0 0 0 21.96.2m-3.24 0c-2 .4-3.82 1.53-5.3 3.16h3.56A10 10 0 0 1 18.72.19zm-2.65.16c-1.9.62-3.64 1.65-5.1 3h1.48a11.5 11.5 0 0 1 3.62-3m12.2 3h1.5A14 14 0 0 0 24.68.4q2.02 1.06 3.56 2.96zM10.2 4.1a14 14 0 0 0-2.6 4.04h2.3a15 15 0 0 1 2-4.04zm.47 4.04h5.2q.31-2.26.86-4.04H12.8a15 15 0 0 0-2.13 4.04M17.5 4.1a27 27 0 0 0-.88 4.04h7.46a25 25 0 0 0-.9-4.04zm6.46 0q.55 1.78.87 4.04h5.2A14 14 0 0 0 27.9 4.1zm4.86 0q1.25 1.8 2 4.04h2.3a14 14 0 0 0-2.63-4.04H28.8zM7.3 8.87a14 14 0 0 0-.82 4.73h2.57q.01-2.49.62-4.73zm3.14 0a17 17 0 0 0-.65 4.73h5.72q.01-2.52.26-4.73zm6.08 0a41 41 0 0 0-.26 4.73h8.2q0-2.52-.28-4.73zm8.4 0q.27 2.22.27 4.73h5.72q-.01-2.5-.65-4.73zm6.12 0q.61 2.25.62 4.73h2.57q0-2.42-.83-4.73zM0 15v1.42h41V15zm1.4 2.9v14.02h5.44v-14H1.4zm10.83 0v14.02h5.43v-14h-5.43zm10.82 0v14.02h5.43v-14h-5.43zm10.82 0v14.02h5.44v-14h-5.43zM0 34.48h41v-1.4H0z"/>
	</svg>
	<svg xmlns="http://www.w3.org/2000/svg" id="Wikivoyage-logo_sister" width="36" height="36" y="496" viewBox="-1 -1 194.5 194.5">
		<path fill="#396" d="m91.48 116.65 47.92 72.57 5.2-86.8a55 55 0 0 1-53.12 14.23"/>
		<path fill="#900" d="m150.33 81.06 38.89-77.78-77.78 38.89a55 55 0 0 1 38.89 38.9z"/>
		<path fill="#069" d="M90.09 47.9 3.28 53.1l72.57 47.92a55 55 0 0 1 14.24-53.13z"/>
	</svg>
	<svg xmlns="http://www.w3.org/2000/svg" id="Wiktionary-logo_sister" width="37" height="37" y="532" viewBox="-1 -1 352 352">
		<defs>
			<linearGradient id="na">
				<stop offset="0" stop-color="#f4e3ca"/>
				<stop offset="1" stop-color="#e9cc9d"/>
			</linearGradient>
			<linearGradient id="nb">
				<stop offset="0" stop-color="#0036d4"/>
				<stop offset="1" stop-color="#010057"/>
			</linearGradient>
			<linearGradient xlink:href="#na" id="nc" x1="870.86" x2="795.29" y1="-140.09" y2="-169.78" gradientTransform="translate(-2383.4 667)scale(3.053)" gradientUnits="userSpaceOnUse"/>
			<linearGradient xlink:href="#nb" id="nd" x1="370.37" x2="283.23" y1="344.23" y2="259.18" gradientTransform="matrix(2.04906 -.50644 .57986 2.07962 -647.13 -304.35)" gradientUnits="userSpaceOnUse"/>
		</defs>
		<g stroke="#000" transform="translate(-17.7 -6.6)scale(1.03655)">
			<rect width="274.39" height="273.34" x="13.21" y="75.56" fill="#e7c78d" stroke-linecap="round" stroke-linejoin="round" stroke-width="3.31" rx="27.96" ry="37.49" transform="matrix(.9871 -.1602 .1692 .98558 0 0)"/>
			<rect width="274.39" height="273.34" x="19.58" y="56.55" fill="url(#nc)" stroke-linecap="round" stroke-linejoin="round" stroke-width="3.31" rx="27.96" ry="37.49" transform="matrix(.9871 -.1602 .1692 .98558 0 0)"/>
			<path fill="url(#nd)" stroke-width="2.49" d="m294.4 64.78.72 4.93q-6.72.97-10.52 4.11t-6.58 10.62q-1.85 5.03-4.7 23.42l-26.34 152.62-5.07.73-56.24-109.85-21.81 121.19-4.56.66-73.26-142.64q-8.2-15.97-10.16-18.81a17.4 17.4 0 0 0-8.02-6.53q-4.74-1.83-12.21-.74l-.73-4.93 63.6-9.24.73 4.93-3.04.44q-6.71.98-9.79 4.7a10.1 10.1 0 0 0-2.4 8.24q.69 4.66 8.75 20.64l48.83 96.5 15.75-90.36-7.31-14.45-5.85-11.54q-3.65-6.28-7.69-10.86a16 16 0 0 0-4.69-3.68 23 23 0 0 0-6.84-2.55q-2.53-.45-7.72.3l-.73-4.92 66.9-9.72.73 4.93-4.56.67q-7.1 1.02-9.92 4.7t-2.02 9.14q1 6.8 9.21 22.9l47.48 93.43 17.96-104.3q3.13-17.33 2.19-23.73-.45-3.06-2.69-5.46a10 10 0 0 0-5.18-3.06q-5.08-1.17-12.82-.05l-.73-4.93z"/>
		</g>
	</svg>
	<svg xmlns="http://www.w3.org/2000/svg" id="arrow-down" width="12" height="8" y="569" viewBox="-1 -1 12 8">
		<path fill="none" stroke="#505356" stroke-width="1.11" d="M.56.55 5 4.9 9.44.54"/>
	</svg>
	<svg xmlns="http://www.w3.org/2000/svg" id="arrow-down-blue" width="14" height="14" y="577" viewBox="-1 -1 14 14">
		<path fill="#36d" d="M10.09 2.94 6.05 6.8 2.1 2.94 1.05 4l5 5 5-5z"/>
	</svg>
	<svg xmlns="http://www.w3.org/2000/svg" id="badge_google_play_store" width="124" height="38" y="591" viewBox="-1 -1 182 55.33">
		<path fill="#100f0d" d="M173.33 53.33H6.67C3 53.33 0 50.33 0 46.67v-40C0 3 3 0 6.67 0h166.66C177 0 180 3 180 6.67v40c0 3.66-3 6.66-6.67 6.66"/>
		<path fill="#a2a2a1" d="M173.33 0H6.67C3 0 0 3 0 6.67v40c0 3.66 3 6.66 6.67 6.66h166.66c3.67 0 6.67-3 6.67-6.66v-40C180 3 177 0 173.33 0m0 1.07a5.6 5.6 0 0 1 5.6 5.6v40a5.6 5.6 0 0 1-5.6 5.6H6.67a5.6 5.6 0 0 1-5.6-5.6v-40a5.6 5.6 0 0 1 5.6-5.6z"/>
		<path fill="#fff" d="M142.58 40h2.49V23.33h-2.49zm22.4-10.66-2.84 7.22h-.09l-2.96-7.22h-2.68l4.44 10.1-2.53 5.62h2.6l6.83-15.72zm-14.1 8.77c-.81 0-1.95-.41-1.95-1.42 0-1.29 1.41-1.78 2.64-1.78 1.09 0 1.6.24 2.27.56a3 3 0 0 1-2.96 2.64m.3-9.14c-1.8 0-3.67.8-4.44 2.55l2.21.92c.47-.92 1.35-1.22 2.27-1.22 1.29 0 2.6.77 2.62 2.15v.17a5.5 5.5 0 0 0-2.6-.64c-2.38 0-4.8 1.3-4.8 3.75 0 2.23 1.95 3.67 4.14 3.67a3.5 3.5 0 0 0 3.17-1.63h.09v1.28h2.4v-6.39c0-2.96-2.2-4.6-5.06-4.6zm-15.38 2.4h-3.53v-5.72h3.53a2.9 2.9 0 0 1 2.92 2.86 2.9 2.9 0 0 1-2.92 2.85m-.06-8.04h-5.96V40h2.49v-6.3h3.47c2.76 0 5.47-2 5.47-5.18s-2.71-5.18-5.47-5.18zm-32.5 14.78c-1.72 0-3.16-1.44-3.16-3.41 0-2 1.44-3.46 3.15-3.46 1.7 0 3.03 1.46 3.03 3.46 0 1.97-1.33 3.41-3.03 3.41m2.85-7.84H106a4 4 0 0 0-2.98-1.27 5.64 5.64 0 0 0-5.44 5.7c0 3.17 2.6 5.64 5.44 5.64 1.35 0 2.43-.6 2.98-1.29h.09v.82c0 2.17-1.16 3.33-3.03 3.33a3.1 3.1 0 0 1-2.85-2.02l-2.17.9a5.4 5.4 0 0 0 5.02 3.36c2.92 0 5.4-1.72 5.4-5.91V29.35h-2.37zm4.08 9.73h2.5V23.33h-2.5zm6.17-5.5a3.1 3.1 0 0 1 2.96-3.3c.99 0 1.83.49 2.1 1.2zm7.73-1.89c-.47-1.27-1.91-3.6-4.85-3.6s-5.35 2.3-5.35 5.66c0 3.18 2.4 5.67 5.62 5.67 2.6 0 4.1-1.59 4.73-2.5l-1.93-1.3a3.2 3.2 0 0 1-2.8 1.57 2.9 2.9 0 0 1-2.74-1.72l7.58-3.13zm-60.41-1.87v2.4h5.76a5 5 0 0 1-1.31 3.04 6 6 0 0 1-4.45 1.76 6.3 6.3 0 0 1-6.31-6.4A6.32 6.32 0 0 1 68 26.86l1.7-1.7a8.4 8.4 0 0 0-6.04-2.43 8.93 8.93 0 0 0-8.94 8.8 8.94 8.94 0 0 0 8.94 8.81c2.62 0 4.6-.86 6.14-2.47 1.6-1.59 2.09-3.82 2.09-5.62q0-.85-.13-1.5zm14.77 7.37c-1.72 0-3.2-1.42-3.2-3.44 0-2.04 1.48-3.43 3.2-3.43s3.2 1.4 3.2 3.43c0 2.02-1.48 3.44-3.2 3.44m0-9.1a5.6 5.6 0 0 0-5.7 5.66 5.6 5.6 0 0 0 5.7 5.67 5.6 5.6 0 0 0 5.7-5.67 5.6 5.6 0 0 0-5.7-5.67m12.42 9.1c-1.72 0-3.2-1.42-3.2-3.44 0-2.04 1.48-3.43 3.2-3.43s3.2 1.4 3.2 3.43c0 2.02-1.48 3.44-3.2 3.44m0-9.1a5.6 5.6 0 0 0-5.7 5.66 5.6 5.6 0 0 0 5.7 5.67 5.6 5.6 0 0 0 5.7-5.67 5.6 5.6 0 0 0-5.7-5.67"/>
		<path fill="#eb3131" d="m27.62 25.9-14.2 15.07h.01a3.83 3.83 0 0 0 5.65 2.32l.04-.03 15.98-9.22z"/>
		<path fill="#f6b60b" d="m41.98 23.33-6.9-4-7.77 6.91 7.8 7.8 6.86-3.96a3.84 3.84 0 0 0 .02-6.75"/>
		<path fill="#5778c5" d="M13.43 12.37q-.13.47-.13.99v26.62q0 .51.13.99L28.1 26.28z"/>
		<path fill="#3bad49" d="m27.73 26.67 7.34-7.35-15.96-9.25a3.84 3.84 0 0 0-5.68 2.3z"/>
		<path fill="#fff" stroke="#fff" stroke-miterlimit="10" stroke-width=".267" d="M63.2 13.04h-3.9v.97h2.92q-.13 1.18-.92 1.84a3 3 0 0 1-2 .68q-1.3 0-2.22-.91-.9-.92-.9-2.3t.9-2.3q.91-.9 2.22-.9.68 0 1.27.24.59.25.95.7l.74-.73a3 3 0 0 0-1.29-.89 4 4 0 0 0-1.67-.31q-1.74 0-2.95 1.21-1.22 1.2-1.22 2.98 0 1.77 1.21 2.98 1.22 1.2 2.96 1.21 1.84 0 2.95-1.19 1-.99 1-2.67a4 4 0 0 0-.06-.6zm1.5-3.73v8.02h4.68v-.98h-3.65V13.8h3.3v-.96h-3.3V10.3h3.65v-1zm11.26.99v-1h-5.52v.99h2.24v7.04h1.03V10.3zm4.99-1h-1.03v8.03h1.03zm6.8 1v-1h-5.51v.99h2.24v7.04h1.03V10.3zm10.41.05q-1.2-1.23-2.94-1.22c-1.74.01-2.14.4-2.93 1.21q-1.2 1.2-1.19 2.98c.01 1.78.4 2.19 1.19 2.98q1.2 1.2 2.93 1.21 1.74 0 2.94-1.2t1.19-2.99-1.19-2.97zm-5.13.67q.88-.9 2.2-.9 1.3 0 2.18.9.9.9.89 2.3 0 1.4-.89 2.3-.87.9-2.19.9-1.3 0-2.2-.9a3.2 3.2 0 0 1-.87-2.3q0-1.39.88-2.3zm8.77 1.32-.05-1.55h.05l4.08 6.54h1.07V9.31h-1.03V14l.05 1.54h-.05l-3.9-6.24h-1.25v8.02h1.03z"/>
	</svg>
	<svg xmlns="http://www.w3.org/2000/svg" id="badge_ios_app_store" width="110" height="38" y="629" viewBox="-1 -1 110 38">
		<g fill="none">
			<path fill="#a6a6a6" d="M99.12 0H7.6l-.83.01q-.9.01-1.8.16a5.8 5.8 0 0 0-4.8 4.8q-.15.9-.16 1.8L0 7.6v20.8l.01.83q.01.9.16 1.8A6 6 0 0 0 1.8 34.2q.63.65 1.45 1.06a6 6 0 0 0 1.71.57q.9.15 1.8.16h94.17q.9-.01 1.8-.16a6 6 0 0 0 1.71-.57 6 6 0 0 0 1.46-1.06 6 6 0 0 0 1.06-1.45q.42-.82.56-1.72t.17-1.8V6.77a12 12 0 0 0-.17-1.8 6 6 0 0 0-.56-1.71 6 6 0 0 0-2.52-2.52 6 6 0 0 0-1.71-.57 12 12 0 0 0-1.8-.16h-.83z"/>
			<path fill="#000" d="M7.6 35.21h-.81a11 11 0 0 1-1.69-.15 5 5 0 0 1-1.49-.5 5 5 0 0 1-1.25-.91 5 5 0 0 1-.92-1.26 5 5 0 0 1-.49-1.49 11 11 0 0 1-.15-1.69l-.01-.82V7.6l.01-.8q0-.85.15-1.69a5 5 0 0 1 .49-1.5A5 5 0 0 1 5.1.95 10 10 0 0 1 6.8.8l.8-.01h93.31q.84.03 1.68.16.79.13 1.5.49a5 5 0 0 1 2.17 2.18q.36.7.49 1.48a12 12 0 0 1 .15 2.5l.01.98V28.4l-.01.83q-.02.84-.15 1.67a5 5 0 0 1-.49 1.5 5 5 0 0 1-.91 1.25 5 5 0 0 1-1.26.92q-.72.36-1.5.5-.84.14-1.69.14l-.8.01z"/>
			<path fill="#fff" d="M38.07 24.43h-4.26l-1.02 3.02h-1.8l4.03-11.18h1.87l4.04 11.18h-1.84zm-3.82-1.4h3.38l-1.67-4.9h-.04zm15.4.34c0 2.53-1.36 4.16-3.4 4.16a2.8 2.8 0 0 1-2.57-1.42h-.04v4.03h-1.67V19.3h1.62v1.35h.03a2.9 2.9 0 0 1 2.6-1.44c2.06 0 3.42 1.64 3.42 4.16zm-1.72 0c0-1.65-.86-2.73-2.16-2.73-1.28 0-2.14 1.1-2.14 2.73 0 1.64.86 2.74 2.14 2.74 1.3 0 2.15-1.07 2.15-2.74zm10.68 0c0 2.53-1.35 4.16-3.4 4.16a2.8 2.8 0 0 1-2.56-1.42h-.04v4.03h-1.67V19.3h1.62v1.35h.03a2.9 2.9 0 0 1 2.6-1.44c2.06 0 3.42 1.64 3.42 4.16m-1.72 0c0-1.65-.85-2.73-2.15-2.73-1.28 0-2.14 1.1-2.14 2.73 0 1.64.86 2.74 2.14 2.74 1.3 0 2.15-1.07 2.15-2.74m7.65.96c.12 1.11 1.2 1.84 2.67 1.84 1.41 0 2.43-.73 2.43-1.73 0-.87-.62-1.39-2.06-1.74l-1.45-.35c-2.06-.5-3-1.46-3-3.01 0-1.93 1.67-3.26 4.06-3.26 2.36 0 3.98 1.33 4.03 3.26h-1.68c-.1-1.12-1.03-1.8-2.38-1.8s-2.27.69-2.27 1.68c0 .8.6 1.26 2.03 1.61l1.24.3c2.29.55 3.24 1.47 3.24 3.1 0 2.1-1.66 3.4-4.31 3.4-2.48 0-4.16-1.28-4.26-3.3zM75 17.37v1.93h1.55v1.32H75v4.5q-.02 1.04 1 1.02.27 0 .54-.04v1.32a5 5 0 0 1-.93.07c-1.65 0-2.29-.62-2.29-2.2v-4.67h-1.18V19.3h1.18v-1.93zm2.45 6c0-2.56 1.5-4.17 3.86-4.17 2.37 0 3.87 1.6 3.87 4.17s-1.5 4.18-3.87 4.18-3.86-1.6-3.86-4.18m6.02 0c0-1.76-.8-2.8-2.16-2.8s-2.16 1.05-2.16 2.8c0 1.77.8 2.8 2.16 2.8s2.16-1.03 2.16-2.8m3.09-4.07h1.6v1.39h.03a1.94 1.94 0 0 1 1.96-1.48q.3 0 .57.07v1.56a2 2 0 0 0-.75-.1 1.7 1.7 0 0 0-1.74 1.87v4.84h-1.67zm11.88 5.75c-.23 1.48-1.67 2.5-3.51 2.5-2.37 0-3.84-1.6-3.84-4.14 0-2.55 1.48-4.21 3.77-4.21 2.25 0 3.67 1.55 3.67 4.02v.57h-5.76v.1a2.12 2.12 0 0 0 2.2 2.3 1.84 1.84 0 0 0 1.88-1.14zm-5.66-2.43h4.08a1.96 1.96 0 0 0-2-2.07 2.06 2.06 0 0 0-2.08 2.07M34.04 7.86a2.38 2.38 0 0 1 2.53 2.67c0 1.71-.93 2.7-2.53 2.7H32.1V7.86zm-1.1 4.6h1.01a1.7 1.7 0 0 0 1.77-1.92 1.7 1.7 0 0 0-1.77-1.92h-1.01zm4.57-1.26a1.92 1.92 0 1 1 3.83 0 1.92 1.92 0 1 1-3.83 0m3 0c0-.88-.4-1.4-1.08-1.4-.7 0-1.1.52-1.1 1.4 0 .89.4 1.4 1.1 1.4.69 0 1.08-.52 1.08-1.4m5.9 2.03h-.82l-.84-2.99h-.06l-.84 2.99h-.82l-1.12-4.05h.81l.73 3.09h.06l.83-3.1h.77l.83 3.1h.07l.72-3.1h.8zm2.06-4.05h.77v.64h.06a1.2 1.2 0 0 1 1.2-.72 1.32 1.32 0 0 1 1.41 1.5v2.63h-.8V10.8q0-.98-.87-.98a.93.93 0 0 0-.97 1.03v2.37h-.8zm4.71-1.59h.8v5.64h-.8zm1.92 3.61a1.92 1.92 0 1 1 3.82 0 1.92 1.92 0 1 1-3.82 0m3 0c0-.88-.4-1.4-1.1-1.4-.69 0-1.08.52-1.08 1.4 0 .89.4 1.4 1.09 1.4s1.09-.52 1.09-1.4m1.66.88c0-.73.54-1.15 1.5-1.2l1.1-.07v-.35q0-.66-.82-.67-.7 0-.85.45h-.77c.08-.7.73-1.14 1.65-1.14 1.02 0 1.6.5 1.6 1.36v2.77h-.78v-.57h-.06a1.4 1.4 0 0 1-1.22.64 1.22 1.22 0 0 1-1.35-1.22m2.6-.34v-.34l-.98.06q-.82.05-.81.59c.01.54.31.57.75.57a.95.95 0 0 0 1.05-.88zm1.85-.54c0-1.28.66-2.1 1.69-2.1a1.3 1.3 0 0 1 1.24.72h.06V7.59h.8v5.64h-.77v-.64h-.06a1.4 1.4 0 0 1-1.27.7c-1.03 0-1.69-.8-1.69-2.09m.83 0c0 .86.4 1.38 1.08 1.38s1.1-.53 1.1-1.38-.43-1.37-1.1-1.37-1.08.52-1.08 1.37m6.27 0a1.92 1.92 0 1 1 3.82 0 1.92 1.92 0 1 1-3.82 0m3 0c0-.88-.4-1.4-1.1-1.4-.69 0-1.08.52-1.08 1.4 0 .89.4 1.4 1.09 1.4s1.09-.52 1.09-1.4m1.9-2.02h.76v.64h.06a1.2 1.2 0 0 1 1.21-.72 1.32 1.32 0 0 1 1.4 1.5v2.63h-.8V10.8q0-.98-.87-.98a.93.93 0 0 0-.97 1.03v2.37h-.8zm7.95-1.01v1.02h.88v.68h-.88v2.08q-.01.63.58.61l.3-.02v.67q-.22.04-.43.04c-.9 0-1.25-.31-1.25-1.1V9.88h-.64V9.2h.64V8.17zm1.97-.58h.8v2.24h.06a1.25 1.25 0 0 1 1.24-.73 1.33 1.33 0 0 1 1.4 1.51v2.62h-.8V10.8q-.01-.98-.88-.98a.95.95 0 0 0-1.02 1.03v2.37h-.8zm8.16 4.54a1.65 1.65 0 0 1-1.76 1.18 1.84 1.84 0 0 1-1.87-2.1 1.87 1.87 0 0 1 1.87-2.11c1.12 0 1.8.77 1.8 2.04v.28h-2.86v.04a1.07 1.07 0 0 0 1.08 1.16 1 1 0 0 0 .96-.49h.77zm-2.82-1.3h2.05a1 1 0 0 0-1-1.05 1.04 1.04 0 0 0-1.05 1.05M22.3 18.27a4.5 4.5 0 0 1 2.12-3.74 4.6 4.6 0 0 0-3.59-1.94c-1.51-.16-2.98.9-3.75.9-.78 0-1.97-.88-3.24-.86A4.8 4.8 0 0 0 9.8 15.1c-1.74 3.01-.44 7.44 1.22 9.88.84 1.19 1.81 2.52 3.09 2.48 1.25-.06 1.71-.8 3.22-.8 1.5 0 1.93.8 3.23.77 1.34-.03 2.19-1.2 3-2.4a10 10 0 0 0 1.36-2.79 4.3 4.3 0 0 1-2.63-3.96zm-2.46-7.28a4.4 4.4 0 0 0 1-3.14 4.5 4.5 0 0 0-2.88 1.5 4.2 4.2 0 0 0-1.03 3.02 3.7 3.7 0 0 0 2.91-1.38"/>
		</g>
	</svg>
	<svg xmlns="http://www.w3.org/2000/svg" id="language-icon" width="22" height="22" y="667" viewBox="-1 -1 22 22">
		<path fill="#36d" fill-rule="evenodd" d="M20 18h-1.44a.6.6 0 0 1-.4-.12 1 1 0 0 1-.23-.31L17 15h-5l-1 2.54a1 1 0 0 1-.22.3.6.6 0 0 1-.4.14H9l4.55-11.47h1.89zm-3.53-4.31L14.89 9.5a12 12 0 0 1-.39-1.24q-.09.37-.19.69l-.19.56-1.58 4.19zm-6.3-1.58a13 13 0 0 1-2.91-1.41 11.5 11.5 0 0 0 2.81-5.37H12V4H7.31a4 4 0 0 0-.2-.56L6.6 2l-1.47.5s.4.89.6 1.5H0v1.33h2.15A11 11 0 0 0 5 10.7a17 17 0 0 1-5 2.1q.56.82.87 1.38a23 23 0 0 0 5.22-2.51 16 16 0 0 0 3.56 1.77zM3.63 5.33h4.91a8 8 0 0 1-2.45 4.45 9 9 0 0 1-2.46-4.45"/>
	</svg>
	<svg xmlns="http://www.w3.org/2000/svg" id="noimage" width="58" height="58" y="689" viewBox="-1 -1 58 58">
		<path fill="#eaecf0" d="M0 0h56v56H0z"/>
		<path fill="#72777d" d="M36.4 13.5H17.8v24.9c0 1.4.9 2.3 2.3 2.3h18.7v-25c.1-1.4-1-2.2-2.4-2.2M30.2 17h5.1v6.4h-5.1zm-8.8 0h6v1.8h-6zm0 4.6h6v1.8h-6zm0 15.5v-1.8h13.8v1.8zm13.8-4.5H21.4v-1.8h13.8zm0-4.7H21.4v-1.8h13.8z"/>
	</svg>
	<svg xmlns="http://www.w3.org/2000/svg" id="search-icon" width="22" height="22" y="747" viewBox="-1 -1 22 22">
		<path fill="#fff" d="M7.5 13a5.5 5.5 0 1 0 0-11 5.5 5.5 0 0 0 0 11m4.55.46A7.4 7.4 0 0 1 7.5 15a7.5 7.5 0 1 1 5.96-2.95l6.49 6.49-1.41 1.41z"/>
	</svg>
	<svg xmlns="http://www.w3.org/2000/svg" id="wikipedia_app_tile" width="42" height="42" y="769" viewBox="-1 -1 86 86">
		<path fill="none" d="M0 0h84v84H0z" opacity=".2"/>
		<path d="M2 12a8 8 0 0 1 8-8h64a8 8 0 0 1 8 8v64a8 8 0 0 1-8 8H10a8 8 0 0 1-8-8z" opacity=".2"/>
		<rect width="78.33" height="78.33" x="2.83" y="2.83" fill="#fff" rx="7.17" ry="7.17"/>
		<path fill="#eaecf0" d="M74 3.67A6.34 6.34 0 0 1 80.33 10v64A6.34 6.34 0 0 1 74 80.33H10A6.34 6.34 0 0 1 3.67 74V10A6.34 6.34 0 0 1 10 3.67zM74 2H10a8 8 0 0 0-8 8v64a8 8 0 0 0 8 8h64a8 8 0 0 0 8-8V10a8 8 0 0 0-8-8"/>
		<path fill="#000222" fill-rule="evenodd" d="M69.73 26.61a5.3 5.3 0 0 0-3.05 1.22 12 12 0 0 0-2.45 4L51.37 61.42q-.13.41-.71.41a.8.8 0 0 1-.71-.41L42.74 46l-8.3 15.41a.8.8 0 0 1-.71.41.7.7 0 0 1-.73-.41l-12.63-29.6A10 10 0 0 0 17.88 28a6.7 6.7 0 0 0-3.66-1.35.5.5 0 0 1-.38-.22 1 1 0 0 1-.18-.5q0-.72.4-.72 1.69 0 3.53.15t3.23.15q1.54 0 3.63-.15t3.88-.15q.4 0 .4.72t-.25.72a5 5 0 0 0-2.66.88 2.4 2.4 0 0 0-1 2 4 4 0 0 0 .4 1.55l10.49 24 5.93-11.44-5.53-11.83a15 15 0 0 0-2.45-4.08 5 5 0 0 0-2.9-1.12.5.5 0 0 1-.34-.22 1 1 0 0 1-.16-.5q0-.72.35-.72a29 29 0 0 1 3.1.15 26 26 0 0 0 2.9.15q1.51 0 3.2-.15t3.43-.15q.4 0 .4.72t-.25.72q-3.38.23-3.38 2A6 6 0 0 0 40.8 31l3.66 7.58 3.63-6.93a6 6 0 0 0 .76-2.47q0-2.37-3.38-2.53-.3 0-.3-.72a1 1 0 0 1 .15-.49q.15-.23.3-.23 1.21 0 3 .15t2.77.15q.78 0 2.29-.13 1.92-.18 3.2-.18.3 0 .3.62 0 .82-.55.82a6 6 0 0 0-3.16 1.11 14 14 0 0 0-3 4.1L45.62 41l6.56 13.66 9.68-23a6 6 0 0 0 .5-2.32q0-2.53-3.38-2.68-.3 0-.3-.72t.45-.72q1.24 0 2.93.15t2.62.15a25 25 0 0 0 2.57-.15 27 27 0 0 1 2.75-.2q.35 0 .35.62a1 1 0 0 1-.19.57.5.5 0 0 1-.43.25"/>
	</svg>
	<script/>
</svg>
